<?xml version="1.0" encoding="UTF-8" standalone="no"?>
<!-- Created with Inkscape (http://www.inkscape.org/) -->

<svg
   xmlns:dc="http://purl.org/dc/elements/1.1/"
   xmlns:cc="http://creativecommons.org/ns#"
   xmlns:rdf="http://www.w3.org/1999/02/22-rdf-syntax-ns#"
   xmlns:svg="http://www.w3.org/2000/svg"
   xmlns="http://www.w3.org/2000/svg"
   xmlns:xlink="http://www.w3.org/1999/xlink"
   xmlns:sodipodi="http://sodipodi.sourceforge.net/DTD/sodipodi-0.dtd"
   xmlns:inkscape="http://www.inkscape.org/namespaces/inkscape"
   id="svg2"
   version="1.1"
   inkscape:version="0.91 r13725"
   width="1200"
   height="630"
   viewBox="0 0 1200 630"
   sodipodi:docname="facebook-og-image.svg"
   inkscape:export-filename="./facebook-og-image.png"
   inkscape:export-xdpi="90"
   inkscape:export-ydpi="90">
  <sodipodi:namedview
     pagecolor="#ffffff"
     bordercolor="#666666"
     borderopacity="1"
     objecttolerance="10"
     gridtolerance="10"
     guidetolerance="10"
     inkscape:pageopacity="0"
     inkscape:pageshadow="2"
     inkscape:window-width="640"
     inkscape:window-height="480"
     id="namedview4"
     showgrid="false"
     inkscape:showpageshadow="false"
     inkscape:zoom="1"
     inkscape:cx="429.84727"
     inkscape:cy="477.3387"
     inkscape:current-layer="layer4"
     fit-margin-top="0"
     fit-margin-left="0"
     fit-margin-right="0"
     fit-margin-bottom="0"
     borderlayer="true" />
  <metadata
     id="metadata8">
    <rdf:RDF>
      <cc:Work
         rdf:about="">
        <dc:format>image/svg+xml</dc:format>
        <dc:type
           rdf:resource="http://purl.org/dc/dcmitype/StillImage" />
        <dc:title />
      </cc:Work>
    </rdf:RDF>
  </metadata>
  <defs
     id="defs6">
    <linearGradient
       inkscape:collect="always"
       id="linearGradient10496-2">
      <stop
         style="stop-color:#ffffff;stop-opacity:0"
         offset="0"
         id="stop10508" />
      <stop
         id="stop10512"
         offset="0.1"
         style="stop-color:#ffffff;stop-opacity:0" />
      <stop
         style="stop-color:#000000;stop-opacity:1"
         offset="1"
         id="stop10510" />
    </linearGradient>
    <radialGradient
       gradientUnits="userSpaceOnUse"
       gradientTransform="matrix(1.1459697,0,0,1.144678,-150.2751,-56.480712)"
       r="1178.0181"
       fy="390.3891"
       fx="881.58972"
       cy="390.3891"
       cx="881.58972"
       id="radialGradient10504"
       xlink:href="#linearGradient10496-2"
       inkscape:collect="always" />
  </defs>
  <g
     transform="translate(-380.61713,-105.55324)"
     inkscape:groupmode="layer"
     id="layer1"
     inkscape:label="bg">
    <rect
       style="color:#000000;clip-rule:nonzero;display:inline;overflow:visible;visibility:visible;opacity:1;isolation:auto;mix-blend-mode:normal;color-interpolation:sRGB;color-interpolation-filters:linearRGB;solid-color:#000000;solid-opacity:1;fill:#404040;fill-opacity:1;fill-rule:nonzero;stroke:none;stroke-width:2;stroke-linecap:square;stroke-linejoin:bevel;stroke-miterlimit:4;stroke-dasharray:none;stroke-dashoffset:0;stroke-opacity:1;marker:none;marker-start:none;marker-mid:none;marker-end:none;paint-order:normal;color-rendering:auto;image-rendering:auto;shape-rendering:auto;text-rendering:auto;enable-background:accumulate"
       id="rect7223"
       width="2075.2683"
       height="1167.3387"
       x="-237.63417"
       y="-115.96237" />
    <g
       id="g7251"
       transform="matrix(1.3945976,0,0,1.3945979,-642.11905,-284.81382)">
      <path
         id="path7824-4-3-6-6-7-2-1-6-3-31-4-4-6-2-6-53-7-7-3-72-9-4-5-4"
         d="m 1136.1428,521.96777 a 29.751881,29.73583 0 0 1 -18.9355,6.83008 29.751881,29.73583 0 0 1 -18.9356,-6.81641 23.95446,8.7491608 0 0 0 -5.0156,5.33985 23.95446,8.7491608 0 0 0 23.9551,8.74804 23.95446,8.7491608 0 0 0 23.9551,-8.74804 23.95446,8.7491608 0 0 0 -5.0235,-5.35352 z"
         style="color:#000000;clip-rule:nonzero;display:inline;overflow:visible;visibility:visible;opacity:1;isolation:auto;mix-blend-mode:normal;color-interpolation:sRGB;color-interpolation-filters:linearRGB;solid-color:#000000;solid-opacity:1;fill:#ffffff;fill-opacity:1;fill-rule:nonzero;stroke:none;stroke-width:40;stroke-linecap:butt;stroke-linejoin:miter;stroke-miterlimit:4;stroke-dasharray:none;stroke-dashoffset:0;stroke-opacity:1;marker:none;marker-start:none;marker-mid:none;marker-end:none;paint-order:normal;color-rendering:auto;image-rendering:auto;shape-rendering:auto;text-rendering:auto;enable-background:accumulate"
         inkscape:connector-curvature="0" />
      <path
         id="path7824-4-3-6-6-7-2-1-6-3-31-4-4-6-4-0-6-6-2-6-7-9"
         d="m 1117.2112,455.93066 a 39.155037,39.133911 0 0 0 -39.1543,39.13477 39.155037,39.133911 0 0 0 39.1543,39.13281 39.155037,39.133911 0 0 0 39.1543,-39.13281 39.155037,39.133911 0 0 0 -39.1543,-39.13477 z m 0,9.39454 a 29.751881,29.73583 0 0 1 29.752,29.73632 29.751881,29.73583 0 0 1 -29.7519,29.73633 29.751881,29.73583 0 0 1 -29.752,-29.73633 29.751881,29.73583 0 0 1 29.752,-29.73632 z"
         style="color:#000000;clip-rule:nonzero;display:inline;overflow:visible;visibility:visible;opacity:1;isolation:auto;mix-blend-mode:normal;color-interpolation:sRGB;color-interpolation-filters:linearRGB;solid-color:#000000;solid-opacity:1;fill:#ffffff;fill-opacity:1;fill-rule:nonzero;stroke:none;stroke-width:40;stroke-linecap:butt;stroke-linejoin:miter;stroke-miterlimit:4;stroke-dasharray:none;stroke-dashoffset:0;stroke-opacity:1;marker:none;marker-start:none;marker-mid:none;marker-end:none;paint-order:normal;color-rendering:auto;image-rendering:auto;shape-rendering:auto;text-rendering:auto;enable-background:accumulate"
         inkscape:connector-curvature="0" />
      <path
         inkscape:connector-curvature="0"
         id="path8253-6-1-9-2-0-5-7-6-7"
         d="m 910.85962,458.9288 0,72.67968 54.18946,0 -5.76759,-14.34765 -32.20116,0 0,-15.07813 26.14062,0 -5.5586,-13.82812 -20.58202,0 0,-14.97266 40.18358,0 0,-14.45312 -56.40428,0 z"
         style="font-style:normal;font-variant:normal;font-weight:bold;font-stretch:normal;font-size:medium;line-height:125%;font-family:Montserrat;-inkscape-font-specification:'Montserrat Bold';text-align:end;letter-spacing:-10.00000095px;word-spacing:0px;text-anchor:end;fill:#ffffff;fill-opacity:1;stroke:none;stroke-width:1px;stroke-linecap:butt;stroke-linejoin:miter;stroke-opacity:1" />
      <path
         inkscape:export-ydpi="360"
         inkscape:export-xdpi="360"
         inkscape:export-filename="./devconf-crystal-us-color.png"
         d="m 988.7174,505.19868 18.507,-46.2692 17.572,0 -29.217,72.679 -13.72499,0 -29.217,-72.679 17.572,0 18.50799,46.2692 z"
         style="font-style:normal;font-variant:normal;font-weight:bold;font-stretch:normal;font-size:medium;line-height:125%;font-family:Montserrat;-inkscape-font-specification:'Montserrat Bold';text-align:end;letter-spacing:-10.00000095px;word-spacing:0px;text-anchor:end;fill:#ffffff;fill-opacity:1;stroke:none;stroke-width:1px;stroke-linecap:butt;stroke-linejoin:miter;stroke-opacity:1"
         id="path8255-06-5-2-2-8-2-5-0-8"
         inkscape:connector-curvature="0" />
      <ellipse
         inkscape:export-ydpi="360"
         inkscape:export-xdpi="360"
         inkscape:export-filename="./devconf-crystal-us-color.png"
         ry="22.60779"
         rx="22.619995"
         cy="495.06235"
         cx="1117.2083"
         id="path7824-2-4-1-1-2-3-56-3-1-4-6-5-4-2-8-6-4-7-3-4-2-2-6-4-9-4"
         style="color:#000000;clip-rule:nonzero;display:inline;overflow:visible;visibility:visible;opacity:1;isolation:auto;mix-blend-mode:normal;color-interpolation:sRGB;color-interpolation-filters:linearRGB;solid-color:#000000;solid-opacity:1;fill:#8e83e4;fill-opacity:1;fill-rule:nonzero;stroke:#8e83e4;stroke-width:4.6259079;stroke-linecap:butt;stroke-linejoin:miter;stroke-miterlimit:4;stroke-dasharray:none;stroke-dashoffset:0;stroke-opacity:1;marker:none;marker-start:none;marker-mid:none;marker-end:none;paint-order:normal;color-rendering:auto;image-rendering:auto;shape-rendering:auto;text-rendering:auto;enable-background:accumulate" />
      <path
         id="path9442"
         d="m 1117.2073,472.4541 a 22.61999,22.607786 0 0 0 -21.8457,16.85156 l 7.0293,1.88282 a 21.568194,21.556558 0 0 1 19.6953,-12.80664 21.568194,21.556558 0 0 1 15.1894,6.26953 22.61999,22.607786 0 0 0 -20.0683,-12.19727 z m -22.4883,20.23242 a 22.61999,22.607786 0 0 0 -0.1328,2.375 22.61999,22.607786 0 0 0 0.8105,5.98438 l 5.295,1.41797 a 21.568194,21.556558 0 0 1 -0.1758,-2.52539 21.568194,21.556558 0 0 1 0.7441,-5.5 l -6.541,-1.75196 z"
         style="color:#000000;clip-rule:nonzero;display:inline;overflow:visible;visibility:visible;opacity:1;isolation:auto;mix-blend-mode:normal;color-interpolation:sRGB;color-interpolation-filters:linearRGB;solid-color:#000000;solid-opacity:1;fill:#ffffff;fill-opacity:1;fill-rule:nonzero;stroke:#8e83e4;stroke-width:0.38549227;stroke-linecap:butt;stroke-linejoin:miter;stroke-miterlimit:4;stroke-dasharray:none;stroke-dashoffset:0;stroke-opacity:1;marker:none;marker-start:none;marker-mid:none;marker-end:none;paint-order:normal;color-rendering:auto;image-rendering:auto;shape-rendering:auto;text-rendering:auto;enable-background:accumulate"
         inkscape:connector-curvature="0" />
      <path
         inkscape:export-ydpi="360"
         inkscape:export-xdpi="360"
         inkscape:export-filename="./devconf-crystal-us-color.png"
         sodipodi:nodetypes="scscsccsscscsccs"
         d="m 866.5294,458.92948 c 12.962,0 22.91,3.1886 29.841,9.5657 6.93201,6.3079 10.39801,15.1112 10.39801,26.4099 0,11.2987 -3.39701,20.2406 -10.19001,26.8257 -6.724,6.5851 -17.017,9.8777 -30.881,9.8777 l -20.85,0 0,-72.679 z m 0.832,58.3303 c 7.41701,0 13.101,-1.8716 17.052,-5.6147 4.02,-3.7431 6.031,-9.1844 6.031,-16.3241 0,-7.1397 -2.011,-12.6157 -6.031,-16.4282 -3.951,-3.8817 -10.051,-5.8226 -18.3,-5.8226 l -5.045,0 0,44.1896 z"
         style="font-style:normal;font-variant:normal;font-weight:bold;font-stretch:normal;font-size:medium;line-height:125%;font-family:Montserrat;-inkscape-font-specification:'Montserrat Bold';text-align:end;letter-spacing:-10.00000095px;word-spacing:0px;text-anchor:end;fill:#ffffff;fill-opacity:1;stroke:none;stroke-width:1px;stroke-linecap:butt;stroke-linejoin:miter;stroke-opacity:1"
         id="path8251-8-5-8-1-8-1-2-0-9-9"
         inkscape:connector-curvature="0" />
      <path
         inkscape:export-ydpi="360"
         inkscape:export-xdpi="360"
         inkscape:export-filename="./devconf-crystal-us-color.png"
         style="font-style:normal;font-variant:normal;font-weight:normal;font-stretch:normal;font-size:medium;line-height:125%;font-family:Montserrat;-inkscape-font-specification:Montserrat;text-align:center;letter-spacing:0px;word-spacing:0px;text-anchor:middle;fill:#ffffff;fill-opacity:1;stroke:none;stroke-width:1px;stroke-linecap:butt;stroke-linejoin:miter;stroke-opacity:1"
         id="path7649-0-2-3-5-3-2-6-20-2-4-1-4-2-9-0-9-7-1-6"
         d="m 1215.7814,458.92968 12.269,0 0,72.6788 -13.308,0 -41.175,-53.0274 0,53.0274 -12.269,0 0,-72.6788 12.269,0 42.214,54.2752 0,-54.2752 z"
         inkscape:connector-curvature="0" />
      <path
         inkscape:export-ydpi="360"
         inkscape:export-xdpi="360"
         inkscape:export-filename="./devconf-crystal-us-color.png"
         style="font-style:normal;font-variant:normal;font-weight:normal;font-stretch:normal;font-size:medium;line-height:125%;font-family:Montserrat;-inkscape-font-specification:Montserrat;text-align:center;letter-spacing:0px;word-spacing:0px;text-anchor:middle;fill:#ffffff;fill-opacity:1;stroke:none;stroke-width:1px;stroke-linecap:butt;stroke-linejoin:miter;stroke-opacity:1"
         d="m 1236.8184,458.93058 0,72.6779 12.27,0 0,-29.9453 24.769,0 4.557,-11.3322 -29.326,0 0,-19.9648 37.351,0 4.598,-11.4356 -54.219,0 z"
         id="path7646-8-93-0-9-2-70-1-6-0-2-2-33-8-7-6-3-8-7-1"
         inkscape:connector-curvature="0" />
      <path
         id="path7182"
         d="m 1310.6311,490.09473 c -12.2237,0 -21.7305,9.0339 -21.7305,20.78515 0,11.86935 9.3906,21.02344 21.4961,21.02344 5.8461,0 11.8093,-2.65741 16.002,-6.79102 l -4.1328,-4.60742 c -3.1298,3.01163 -7.3821,4.90234 -11.5157,4.90234 -8.2672,0 -14.7636,-6.43683 -14.7636,-14.58593 0,-8.14911 6.4964,-14.52734 14.7636,-14.52734 4.1927,0 8.504,2.00802 11.5157,5.25586 l 4.0742,-5.07813 c -4.0155,-3.95645 -9.8629,-6.37695 -15.709,-6.37695 z m 20.3887,0.17578 0,6.25976 24.4472,0 -25.2148,30.05859 0,5.01758 34.9004,0 0,-6.25781 -25.4512,0 25.1563,-30.05859 0,-5.01953 -33.8379,0 z m -50.6074,34.07421 c -2.1259,0 -3.7207,1.59394 -3.7207,3.83789 0,2.30301 1.5948,3.95703 3.7207,3.95703 2.1258,0 3.7207,-1.65402 3.7207,-3.95703 0,-2.24395 -1.5949,-3.83789 -3.7207,-3.83789 z"
         style="font-style:normal;font-variant:normal;font-weight:normal;font-stretch:normal;font-size:medium;line-height:125%;font-family:Montserrat;-inkscape-font-specification:Montserrat;text-align:start;letter-spacing:0px;word-spacing:0px;text-anchor:start;fill:#ffffff;fill-opacity:1;stroke:none;stroke-width:1px;stroke-linecap:butt;stroke-linejoin:miter;stroke-opacity:1"
         inkscape:connector-curvature="0" />
      <path
         id="path9486"
         d="m 1055.8772,457.16113 c -20.7219,-0.002 -37.6426,16.91876 -37.6426,37.64063 0,20.72186 16.9207,37.66049 37.6426,37.64257 0.3442,-3e-4 0.6813,-9e-5 1,0 9.1778,0.002 17.6057,-3.32366 24.1523,-8.82226 -2.5212,-3.18176 -4.6387,-6.69498 -6.2597,-10.47071 -4.6645,4.79913 -11.1574,7.81201 -18.3926,7.94532 -14.3625,-0.265 -25.8086,-11.86566 -25.8086,-26.29492 0,-14.42928 11.4461,-26.0319 25.8086,-26.29688 7.3203,0.13486 13.879,3.21878 18.5547,8.11719 1.6534,-3.76245 3.794,-7.26342 6.3437,-10.42578 -6.5811,-5.62393 -15.104,-9.05248 -24.3984,-9.03516 -0.3443,6.5e-4 -0.6811,4e-5 -1,0 z"
         style="color:#000000;font-style:normal;font-variant:normal;font-weight:normal;font-stretch:normal;font-size:medium;line-height:normal;font-family:sans-serif;text-indent:0;text-align:start;text-decoration:none;text-decoration-line:none;text-decoration-style:solid;text-decoration-color:#000000;letter-spacing:normal;word-spacing:normal;text-transform:none;direction:ltr;block-progression:tb;writing-mode:lr-tb;baseline-shift:baseline;text-anchor:start;white-space:normal;clip-rule:nonzero;display:inline;overflow:visible;visibility:visible;opacity:1;isolation:auto;mix-blend-mode:normal;color-interpolation:sRGB;color-interpolation-filters:linearRGB;solid-color:#000000;solid-opacity:1;fill:#ffffff;fill-opacity:1;fill-rule:nonzero;stroke:none;stroke-width:11.33300209;stroke-linecap:butt;stroke-linejoin:miter;stroke-miterlimit:4;stroke-dasharray:none;stroke-dashoffset:0;stroke-opacity:1;marker:none;paint-order:normal;color-rendering:auto;image-rendering:auto;shape-rendering:auto;text-rendering:auto;enable-background:accumulate"
         inkscape:connector-curvature="0" />
    </g>
    <flowRoot
       transform="translate(50,0)"
       xml:space="preserve"
       id="flowRoot7264"
       style="font-style:normal;font-variant:normal;font-weight:normal;font-stretch:normal;font-size:34.19182587px;line-height:125%;font-family:Montserrat;-inkscape-font-specification:Montserrat;text-align:center;letter-spacing:0px;word-spacing:0px;text-anchor:middle;fill:#b9b9b9;fill-opacity:1;stroke:none;stroke-width:1px;stroke-linecap:butt;stroke-linejoin:miter;stroke-opacity:1"><flowRegion
         id="flowRegion7266"><rect
           id="rect7268"
           width="1936.0171"
           height="586.57983"
           x="-158.97552"
           y="223.37711"
           style="font-style:normal;font-variant:normal;font-weight:normal;font-stretch:normal;font-family:Montserrat;-inkscape-font-specification:Montserrat;fill:#b9b9b9;fill-opacity:1" /></flowRegion><flowPara
         id="flowPara7272">Brno, Czech Republic</flowPara><flowPara
         id="flowPara7274">January 27 - 29, 2017</flowPara><flowPara
         id="flowPara7276" /></flowRoot>    <flowRoot
       transform="translate(50,0)"
       xml:space="preserve"
       id="flowRoot7264-6"
       style="font-style:normal;font-variant:normal;font-weight:normal;font-stretch:normal;font-size:44.26388168px;line-height:125%;font-family:Montserrat;-inkscape-font-specification:Montserrat;text-align:center;letter-spacing:0px;word-spacing:0px;text-anchor:middle;fill:#9c92e7;fill-opacity:1;stroke:none;stroke-width:1px;stroke-linecap:butt;stroke-linejoin:miter;stroke-opacity:1"><flowRegion
         id="flowRegion7266-7"><rect
           id="rect7268-5"
           width="2506.3191"
           height="759.37164"
           x="-442.35928"
           y="497.27872"
           style="font-style:normal;font-variant:normal;font-weight:normal;font-stretch:normal;font-family:Montserrat;-inkscape-font-specification:Montserrat;fill:#9c92e7;fill-opacity:1" /></flowRegion><flowPara
         id="flowPara7276-6"
         style="font-style:normal;font-variant:normal;font-weight:normal;font-stretch:normal;font-family:'Roboto Mono';-inkscape-font-specification:'Roboto Mono';fill:#9c92e7;fill-opacity:1">#DEFINEfuture</flowPara></flowRoot>    <image
       sodipodi:absref="/home/garrett/Project/DevConf/devconfcz/social-media/facebook/../_shared_assets/petrov_brno.png"
       xlink:href="../_shared_assets/petrov_brno.png"
       width="453.28473"
       height="527.16119"
       preserveAspectRatio="none"
       id="image7323"
       x="1161.0101"
       y="166.87975" />
    <path
       inkscape:connector-curvature="0"
       id="rect7326"
       d="m -237.63417,688.20431 0,363.17209 2075.26837,0 0,-363.17209 -2075.26837,0 z"
       style="color:#000000;clip-rule:nonzero;display:inline;overflow:visible;visibility:visible;opacity:1;isolation:auto;mix-blend-mode:normal;color-interpolation:sRGB;color-interpolation-filters:linearRGB;solid-color:#000000;solid-opacity:1;fill:#272727;fill-opacity:1;fill-rule:nonzero;stroke:none;stroke-width:2;stroke-linecap:square;stroke-linejoin:bevel;stroke-miterlimit:4;stroke-dasharray:none;stroke-dashoffset:0;stroke-opacity:1;marker:none;marker-start:none;marker-mid:none;marker-end:none;paint-order:normal;color-rendering:auto;image-rendering:auto;shape-rendering:auto;text-rendering:auto;enable-background:accumulate" />
  </g>
  <g
     transform="translate(-380.61713,-105.55324)"
     inkscape:label="pattern"
     id="layer4"
     inkscape:groupmode="layer">
    <path
       inkscape:connector-curvature="0"
       style="opacity:0.15;fill:none;stroke:url(#radialGradient10504);stroke-width:2;stroke-linecap:butt;stroke-linejoin:miter;stroke-miterlimit:4;stroke-dasharray:1.99999996, 1.99999996;stroke-dashoffset:0"
       d="m 2206.1915,390.38909 c 0,-77.21829 -15.7551,-154.40542 -46.0788,-225.59517 -30.3237,-71.189745 -75.1922,-136.324534 -131.2255,-190.346455 -56.0334,-54.021918 -123.1875,-96.886905 -196.4048,-125.215365 -73.2172,-28.32848 -152.4399,-42.0966 -231.7014,-40.11766 -79.2617,1.97894 -158.5001,19.70494 -231.7492,51.99116 -73.2489,32.28623 -140.4508,79.108831 -196.5475,137.0881152 -56.097,57.9792908 -101.0445,127.0712048 -131.4634,202.2176848 -30.4189,75.14647 -46.2851,156.28994 -46.412,237.4641 -0.1268,81.17412 15.4857,162.3166 45.6509,237.46106 30.1652,75.14443 74.8591,144.23328 130.7022,202.20851 55.8432,57.97522 122.7912,104.79275 195.7867,137.07283 72.9953,32.2802 151.98,49.999 230.9882,51.9699 79.008,1.9708 157.9772,-11.8065 230.9408,-40.1451 72.9637,-28.33869 139.8645,-71.21486 195.6444,-125.24896 55.7801,-54.03411 100.395,-119.1821 130.4654,-190.38609 30.0703,-71.20396 45.5724,-148.40635 45.3192,-225.64089 -0.2532,-77.23455 -16.2615,-154.43895 -46.8384,-225.64697 -30.5767,-71.20805 -75.6981,-136.36213 -131.9843,-190.404358 -56.2861,-54.04223 -123.6933,-96.928533 -197.1632,-125.279345 -73.4701,-28.350815 -152.9452,-42.142278 -232.4595,-40.1877 -79.5142,1.954566 -159.005,19.655195 -232.5064,51.91504 -73.5012,32.259834 -140.9553,79.055046 -197.3041,137.005915 -56.3491,57.950898 -101.5488,127.013368 -132.2195,202.129448 -30.6707,75.11602 -46.7887,156.22809 -47.1672,237.36979 -0.3785,81.14168 14.9825,162.25071 44.8964,237.36068 29.9138,75.11 74.3565,144.16339 129.9487,202.10214 55.592,57.9388 122.289,104.7188 195.0335,136.9604 72.7447,32.2416 151.4789,49.9211 230.2364,51.8513 78.7577,1.9304 157.4764,-11.8884 230.1902,-40.2695 72.7136,-28.3812 139.3644,-71.3008 194.8944,-125.37942 55.5303,-54.07862 99.8956,-119.27212 129.7166,-190.52259 29.821,-71.25048 45.0738,-148.50036 44.5714,-225.78342 -0.502,-77.28303 -16.7593,-154.53692 -47.5847,-225.79546 C 2103.5415,281.3342 2058.1718,216.12862 2001.6374,162.03389 1945.1029,107.93917 1877.4479,64.999396 1803.7301,36.594116 1730.0124,8.1888324 1650.2894,-5.6581017 1570.5279,-3.7599804 1490.7664,-1.8618605 1411.0282,15.78131 1337.2802,47.982711 1263.532,80.184125 1195.8312,126.9199 1139.2358,184.81036 c -56.5952,57.89046 -102.0411,126.89156 -132.9578,201.94524 -30.91661,75.05366 -47.28029,156.10232 -47.9042,237.17966 -0.6239,81.07736 14.49199,162.12104 44.1609,237.16469 29.6689,75.04368 73.8671,144.02975 129.2147,201.90025 55.3476,57.8705 121.8008,104.5812 194.3016,136.7527 72.5007,32.1713 150.9915,49.7794 229.5058,51.6377 78.5145,1.858 156.9903,-12.0338 229.4612,-40.4891 72.4709,-28.4553 138.8794,-71.4501 194.1676,-125.6048 55.2881,-54.1547 99.4118,-119.42521 128.9914,-190.75369 29.5796,-71.32849 44.5912,-148.65735 43.848,-226.02034 -0.7429,-77.36299 -17.2406,-154.69781 -48.3061,-226.03821 -31.0654,-71.34041 -76.675,-136.62881 -133.4491,-190.80732 -56.7739,-54.17851 -124.6682,-97.20305 -198.6247,-125.69405 -73.9566,-28.49099 -153.9178,-42.424591 -233.9175,-40.614087 -79.9996,1.810477 -159.9755,19.365087 -233.9609,51.476967 -73.9857,32.11188 -141.9235,78.75716 -198.7555,136.5562 -56.8319,57.79904 -102.514,126.70775 -133.66663,201.66808 -31.15262,74.96037 -47.75183,155.91478 -48.61092,236.89689 -0.85904,80.98214 14.02203,161.92967 43.45655,236.87624 29.4345,74.94662 73.3985,143.83472 128.5126,201.60612 55.1141,57.7716 121.3341,104.3824 193.602,136.453 72.2679,32.0705 150.5262,49.5769 228.8087,51.3324 78.2823,1.7554 156.5266,-12.2402 228.7664,-40.7999 72.2398,-28.5599 138.4175,-71.6602 193.4752,-125.9213 55.0579,-54.2611 98.9516,-119.6389 128.3018,-191.07566 29.3501,-71.43673 44.1327,-148.87475 43.161,-226.34783 -0.9716,-77.47309 -17.6974,-154.91888 -48.9906,-226.37119 -31.2934,-71.45232 -77.1299,-136.85356 -134.1308,-191.1458 -57.0008,-54.29222 -125.1213,-97.43142 -199.3037,-126.03797 -74.1824,-28.60652 -154.3691,-42.65657 -234.5938,-40.96345 -80.2246,1.69316 -160.4249,19.12952 -234.6342,51.12223 -74.2097,31.99273 -142.371,78.51798 -199.426,136.19607 -57.0551,57.6781 -102.9597,126.46498 -134.33436,201.30259 -31.37467,74.83762 -48.19546,155.66842 -49.27558,236.52603 -1.08014,80.85763 13.58039,161.67978 42.79483,236.50008 29.21445,74.8204 72.95901,143.5812 127.85391,201.2246 54.8951,57.6436 120.8966,104.1254 192.9466,136.0663 72.0498,31.9409 150.0908,49.3166 228.1561,50.9405 78.0655,1.6239 156.0933,-12.5041 228.117,-41.1971 72.024,-28.6932 137.9863,-71.9275 192.8294,-126.3236 54.8429,-54.3961 98.5223,-119.9098 127.6588,-191.4832 29.1363,-71.57345 43.7057,-149.14903 42.5214,-226.76052 -1.1841,-77.61148 -18.1219,-155.19656 -49.6267,-226.78898 -31.5049,-71.5924 -77.5526,-137.13459 -134.7639,-191.56864 -57.211,-54.43405 -125.5414,-97.71586 -199.933,-126.4659 -74.3916,-28.75001 -154.787,-42.94438 -235.2198,-41.3964 -80.4327,1.548 -160.8404,18.83836 -235.2568,50.68427 -74.4165,31.84592 -142.7842,78.2235 -200.0449,135.75313 -57.26079,57.52963 -103.37058,126.16722 -134.94978,200.85471 -31.57919,74.68751 -48.60393,155.3674 -49.88738,236.07327 -1.28346,80.70587 13.17435,161.37546 42.18669,236.04246 29.01233,74.6669 72.55538,143.2736 127.24957,200.7621 54.6941,57.4884 120.4952,103.8147 192.3455,135.5989 71.8503,31.7841 149.6922,49.0025 227.5593,50.4682 77.8673,1.4658 155.6972,-12.8212 227.5241,-41.6741 71.8267,-28.8528 137.5926,-72.2478 192.2399,-126.8051 54.6471,-54.5575 98.1314,-120.2334 127.0733,-191.9697 28.9418,-71.7363 43.3173,-149.47561 41.9399,-227.25157 -1.3773,-77.77594 -18.5076,-155.52625 -50.2044,-227.28466 -31.6966,-71.75844 -77.9355,-137.4674 -135.3373,-192.06899 -57.4017,-54.60158 -125.9219,-98.05171 -200.5026,-126.97077 -74.581,-28.91908 -155.1649,-43.28328 -235.7854,-41.90587 -80.6205,1.37742 -161.2154,18.49646 -235.8181,50.17031 -74.6031,31.67383 -143.1565,77.87862 -200.60229,135.23469 -57.4458,57.35604 -103.73998,125.81933 -135.50281,200.3318 -31.76287,74.51249 -48.97055,155.01658 -50.43627,235.54594 -1.46571,80.52942 12.81054,161.02172 41.64204,235.51062 28.83153,74.489 72.19445,142.9171 126.70918,200.2262 54.51473,57.309 120.13715,103.4551 191.80955,135.0585 71.6724,31.6033 149.337,48.6401 227.0276,49.9237 77.6907,1.2834 155.3449,-13.1866 226.9968,-42.2229 71.6517,-29.0367 137.2432,-72.616 191.7167,-127.3584 54.4738,-54.7425 97.7853,-120.6041 126.555,-192.5269 28.7699,-71.9228 42.9741,-149.8492 41.426,-227.81297 -1.5479,-77.96374 -18.8482,-155.90257 -50.7139,-227.85017 -31.8655,-71.9476 -78.2728,-137.84642 -135.842,-192.63855 -57.5691,-54.79209 -126.2562,-98.43341 -201.0031,-127.54436 -74.7469,-29.11095 -155.4958,-43.66767 -236.2808,-42.48343 -80.7852,1.18422 -161.5436,18.10941 -236.3096,49.58876 -74.7658,31.47932 -143.48131,77.48895 -201.08847,134.64924 -57.60716,57.16025 -104.06188,125.42709 -135.98451,199.74248 -31.92262,74.31537 -49.28929,154.62175 -50.91319,234.95276 -1.62391,80.33104 12.49495,160.62434 41.16987,234.91364 28.67492,74.2894 71.88204,142.5173 126.2418,199.6254 54.35975,57.1083 119.82806,103.0528 191.347,134.4541 71.519,31.4012 149.0311,48.2352 226.5699,49.3155 77.5387,1.0801 155.0422,-13.5938 226.5439,-42.8348 71.5016,-29.2409 136.944,-73.0255 191.2691,-127.9737 54.325,-54.9482 97.4891,-121.0162 126.1119,-193.1459 28.6229,-72.1297 42.6813,-150.2635 40.9883,-228.4354 -1.6933,-78.17189 -19.138,-156.31936 -51.1471,-228.47623 -32.009,-72.15683 -78.559,-138.26549 -136.27,-193.26799 -57.711,-55.00247 -126.539,-98.85476 -201.4259,-128.17723 -74.887,-29.32244 -155.7753,-44.09125 -236.6987,-43.11965 -80.9234,0.97159 -161.8196,17.6836 -236.7221,48.94919 -74.90255,31.26561 -143.7539,77.06095 -201.49603,134.00639 -57.74214,56.94544 -104.33098,124.99691 -136.38686,199.09639 -32.05588,74.09948 -49.55495,154.18944 -51.31038,234.30343 -1.75542,80.114 12.23278,160.19 40.77794,234.2614 28.54514,74.0713 71.62335,142.0805 125.85508,198.9698 54.23173,56.8892 119.57289,102.6141 190.96558,133.7953 71.39277,31.1811 148.77937,47.7947 226.19367,48.6537 77.4145,0.8592 154.7941,-14.0363 226.173,-43.4994 71.379,-29.4631 136.6996,-73.4701 190.9037,-128.6413 54.2043,-55.1713 97.2481,-121.4627 125.7519,-193.8165 28.5037,-72.3536 42.4438,-150.712 40.6332,-229.1088 -1.8104,-78.39678 -19.3716,-156.76966 -51.4961,-229.15239 -32.1246,-72.38273 -78.7895,-138.7177 -136.6141,-193.947 -57.8247,-55.22927 -126.7655,-99.30879 -201.7644,-128.85896 -74.9989,-29.55017 -155.9981,-44.54711 -237.0318,-43.80411 -81.0334,0.74302 -162.03866,17.22599 -237.04944,48.26212 -75.01077,31.03614 -143.96944,76.60161 -201.81798,133.31671 -57.84853,56.71514 -104.54286,124.53584 -136.70329,198.40417 -32.16043,73.86832 -49.76313,153.72666 -51.62126,233.60876 -1.85813,79.882 12.02833,159.7255 40.47262,233.564 28.4443,73.8385 71.4226,141.6146 125.55538,198.2701 54.13275,56.6556 119.37588,102.1466 190.67148,133.0934 71.29561,30.9468 148.58619,47.3256 225.90519,47.9495 77.3192,0.6239 154.6046,-14.507 225.8903,-44.2062 71.2857,-29.6991 136.5137,-73.9424 190.6263,-129.3502 54.1128,-55.4079 97.0662,-121.9363 125.4805,-194.5274 28.4144,-72.5912 42.2659,-151.1873 40.3677,-229.8222 -1.8981,-78.6349 -19.5458,-157.24625 -51.7564,-229.86776 -32.2102,-72.62152 -78.9595,-139.19562 -136.868,-194.66439 -57.9085,-55.46876 -126.9322,-99.78811 -202.0129,-129.57841 -75.0809,-29.79029 -156.1612,-45.02771 -237.2746,-44.52548 -81.11337,0.50223 -162.19765,16.74409 -237.28644,47.53881 -75.08878,30.79472 -144.1245,76.11843 -202.04912,132.59153 -57.92463,56.47307 -104.69406,124.05145 -136.92863,197.67712 -32.23455,73.62569 -49.91042,153.24108 -51.84073,232.87988 -1.93031,79.6388 11.88491,159.2388 40.25898,232.8336 28.37406,73.5946 71.28312,141.1267 125.3476,197.5378 54.06448,56.4113 119.24032,101.6576 190.46959,132.3595 71.22926,30.7019 148.45442,46.8354 225.70925,47.214 77.2548,0.3785 154.477,-14.9981 225.7001,-44.9431 71.2232,-29.9449 136.39,-74.4344 190.4424,-130.0887 54.0522,-55.6544 96.9462,-122.4294 125.3021,-195.2675 28.3557,-72.838 42.1497,-151.6812 40.1952,-230.5634 -1.9546,-78.8823 -19.6578,-157.74123 -51.9227,-230.61054 -32.2649,-72.86933 -79.0676,-139.69144 -137.0286,-195.40844 -57.9609,-55.71699 -127.0362,-100.28476 -202.1674,-130.3237 -75.1312,-30.03892 -156.261,-45.52519 -237.42294,-45.272 -81.16194,0.2532 -162.29371,16.24582 -237.42901,46.79113 -75.13528,30.54533 -144.21651,75.61944 -202.18562,131.84272 -57.96912,56.22333 -104.78206,123.55173 -137.05911,196.92728 -32.27708,73.37557 -49.99444,152.74065 -51.96525,232.12905 -1.97081,79.3884 11.80494,158.7377 40.14054,232.0816 28.33556,73.3439 71.20716,140.625 125.23515,196.7852 54.028,56.1601 119.16837,101.1552 190.36318,131.6059 71.19482,30.4504 148.38651,46.3326 225.60887,46.4594 77.22229,0.1271 154.41299,-15.5016 225.60579,-45.6985 71.1929,-30.1967 136.3301,-74.9382 190.3542,-130.8446 54.0238,-55.9065 96.8903,-122.9339 125.2198,-196.0241 28.3295,-73.0904 42.0981,-152.186 40.1192,-231.3208 -1.979,-79.1349 -19.7054,-158.24642 -51.9927,-231.36847 -32.2873,-73.12204 -79.1113,-140.197 -137.0928,-196.16687 -57.981,-55.9699 -127.0757,-100.79066 -202.2252,-131.08264 -75.1495,-30.292 -156.2965,-46.03136 -237.47468,-46.03136 -81.1782,0 -162.32521,15.73936 -237.47475,46.03136 -75.14951,30.29198 -144.24393,75.11274 -202.22525,131.08264 -57.98131,55.96987 -104.80542,123.04483 -137.09265,196.16687 -32.28724,73.12205 -50.01376,152.23357 -51.99268,231.36847 -1.97894,79.1348 11.78969,158.2304 40.11918,231.3208 28.32947,73.0902 71.19597,140.1176 125.21991,196.0241 54.02394,55.9064 119.16126,100.6479 190.35404,130.8446 71.19278,30.1969 148.38345,45.8254 225.6058,45.6985 77.22234,-0.1271 154.41404,-16.009 225.60878,-46.4594 71.195,-30.4507 136.3352,-75.4458 190.3633,-131.6059 54.028,-56.1602 96.8997,-123.4413 125.2352,-196.7852 28.3355,-73.3439 42.1113,-152.6932 40.1406,-232.0816 -1.9708,-79.3884 -19.6882,-158.75348 -51.9653,-232.12905 -32.277,-73.37555 -79.09,-140.70395 -137.0591,-196.92728 -57.9693,-56.22328 -127.0504,-101.29739 -202.1857,-131.84272 -75.13533,-30.54531 -156.2671,-46.53793 -237.42904,-46.79113 -81.16194,-0.25319 -162.29169,15.23308 -237.42292,45.272 -75.13124,30.03894 -144.20637,74.60671 -202.16735,130.3237 -57.96099,55.717 -104.76381,122.53911 -137.02869,195.40844 -32.2649,72.86931 -49.96805,151.72824 -51.92263,230.61054 -1.95458,78.8822 11.83943,157.7254 40.19527,230.5634 28.3559,72.8381 71.24978,139.6131 125.30212,195.2675 54.05235,55.6543 119.2191,100.1438 190.44229,130.0887 71.22321,29.945 148.44533,45.3216 225.70012,44.9431 77.25478,-0.3786 154.47995,-16.5121 225.7092,-47.214 71.22933,-30.7019 136.40523,-75.9482 190.46963,-132.3595 54.0645,-56.4111 96.9735,-123.9432 125.3475,-197.5378 28.3741,-73.5948 42.1895,-153.1948 40.2591,-232.8336 -1.9304,-79.6388 -19.6063,-159.25419 -51.8408,-232.87988 C 1216.0307,806.46285 1169.2613,738.88447 1111.3366,682.4114 1053.412,625.9383 984.3763,580.61459 909.28748,549.81987 834.1987,519.02515 753.11441,502.78329 672.00098,502.28106 590.88756,501.77883 509.80727,517.01625 434.72656,546.80654 359.64582,576.59684 290.62218,620.91619 232.71367,676.38495 174.80515,731.85372 128.05584,798.42782 95.84542,871.04934 63.634981,943.67085 45.987302,1022.2822 44.089183,1100.9171 c -1.898105,78.6349 11.953312,157.231 40.367637,229.8222 28.4143,72.5911 71.36761,139.1195 125.48036,194.5274 54.11278,55.4078 119.34091,99.6511 190.62651,129.3502 71.28558,29.6992 148.57108,44.8301 225.89022,44.2062 77.31913,-0.6239 154.60963,-17.0027 225.90523,-47.9495 71.29559,-30.9468 136.53876,-76.4378 190.67146,-133.0934 54.1327,-56.6555 97.111,-124.4316 125.5553,-198.2701 28.4444,-73.8385 42.3308,-153.682 40.4728,-233.564 -1.8581,-79.8821 -19.4608,-159.74044 -51.6213,-233.60876 C 1125.277,778.46901 1078.5825,710.64831 1020.734,653.93317 962.8855,597.21807 893.92684,551.6526 818.91606,520.61646 743.90528,489.58033 662.89999,473.09736 581.86649,472.35434 500.83302,471.61134 419.83367,486.60828 344.8348,516.15845 269.83592,545.70862 200.89512,589.78814 143.07042,645.01741 85.24568,700.24671 38.581136,766.58168 6.456423,838.96441 -25.668276,911.34714 -43.2293,989.72002 -45.0398,1068.1168 c -1.81051,78.3968 12.129512,156.7552 40.633361,229.1088 28.503836,72.3538 71.547625,138.6452 125.751819,193.8165 54.20419,55.1712 119.52471,99.1782 190.90362,128.6413 71.37892,29.4631 148.75867,44.3586 226.17304,43.4994 77.41433,-0.859 154.80097,-17.4726 226.19366,-48.6537 71.39271,-31.1812 136.73386,-76.9061 190.96558,-133.7953 54.23172,-56.8893 97.30992,-124.8985 125.85512,-198.9698 28.5452,-74.0714 42.5333,-154.1474 40.7779,-234.2614 -1.7554,-80.11399 -19.2545,-160.20395 -51.3104,-234.30343 C 1038.848,739.09969 992.2592,671.04822 934.51705,614.10278 876.77492,557.15734 807.92357,511.362 733.02105,480.09639 658.11854,448.8308 577.22237,432.11879 496.29898,431.1472 415.37557,430.1756 334.48723,444.94441 259.60027,474.26685 184.71332,503.58932 115.88533,547.44161 58.174341,602.44408 0.463373,657.44658 -46.08656,723.55524 -78.09571,795.71207 c -32.00916,72.15687 -49.45373,150.30434 -51.14689,228.47623 -1.69314,78.1719 12.36514,156.3057 40.98814,228.4354 28.62298,72.1297 71.786808,138.1977 126.111937,193.1459 54.325143,54.9482 119.767473,98.7328 191.269133,127.9737 71.50163,29.241 149.005,43.9149 226.54386,42.8348 77.53885,-1.0803 155.05087,-17.9143 226.56983,-49.3155 71.51896,-31.4013 136.98728,-77.3458 191.34702,-134.4541 54.35976,-57.1081 97.56688,-125.336 126.24178,-199.6254 28.675,-74.2893 42.7938,-154.5826 41.1699,-234.91364 C 1039.3751,917.93845 1022.0085,837.63207 990.0858,763.3167 958.16316,689.00131 911.70844,620.73447 854.1013,563.57422 796.49415,506.41393 727.77867,460.4043 653.01283,428.92498 578.247,397.44563 497.48842,380.52044 416.70343,379.33622 335.91843,378.15198 255.16934,392.7087 180.4225,421.81965 105.67564,450.9306 36.988614,494.57192 -20.580561,549.36401 -78.14975,604.15614 -124.557,670.05496 -156.4227,742.00256 c -31.86568,71.9476 -49.16593,149.88643 -50.71393,227.85017 -1.54799,77.96377 12.65628,155.89017 41.42607,227.81297 28.76982,71.9228 72.08131,137.7844 126.554894,192.5269 54.473602,54.7424 120.065236,98.3217 191.716986,127.3584 71.65176,29.0363 149.30606,43.5063 226.99666,42.2229 77.69061,-1.2836 155.35518,-18.3204 227.02752,-49.9237 71.67234,-31.6034 137.29484,-77.7495 191.80955,-135.0585 54.51476,-57.3091 97.87767,-125.7372 126.70919,-200.2262 28.83151,-74.4889 43.10776,-154.9812 41.64205,-235.51062 C 965.28058,858.52552 948.07289,778.02143 916.31002,703.50894 884.54717,628.99647 838.25301,560.53318 780.80722,503.17714 723.36142,445.82107 654.80804,399.61628 580.2051,367.94245 505.6022,336.2686 425.00732,319.14956 344.38679,317.77214 263.76626,316.39473 183.18241,330.75893 108.60156,359.67801 34.020734,388.59707 -34.499529,432.0472 -91.90118,486.64878 c -57.40163,54.60159 -103.6406,120.31055 -135.33724,192.06899 -31.69662,71.75841 -48.82704,149.50872 -50.20448,227.28466 -1.37742,77.77596 12.99818,155.51527 41.94005,227.25157 28.94188,71.7363 72.42618,137.4122 127.07335,191.9697 54.64715,54.5573 120.413089,97.9523 192.23989,126.8051 71.82679,28.8529 149.65685,43.1399 227.52395,41.6741 77.86711,-1.4657 155.70894,-18.6841 227.55921,-50.4682 71.85029,-31.7842 137.65148,-78.1105 192.34561,-135.5989 54.69417,-57.4885 98.2372,-126.0952 127.24954,-200.7621 29.01234,-74.667 43.47014,-155.33659 42.18669,-236.04246 C 899.39193,790.12537 882.36719,709.44548 850.788,634.75797 819.20881,560.07048 773.09901,491.43289 715.83826,433.90326 658.57752,376.37363 590.20991,329.99605 515.79344,298.15013 441.37697,266.30422 360.96922,249.01386 280.53651,247.46586 c -80.43273,-1.54798 -160.82809,12.64639 -235.219728,41.3964 -74.391663,28.75004 -142.722052,72.03185 -199.933172,126.4659 -57.21112,54.43405 -103.2589,119.97624 -134.76366,191.56864 -31.50477,71.59242 -48.44267,149.1775 -49.62689,226.78898 -1.18424,77.61149 13.3852,155.18707 42.52158,226.76052 29.13637,71.5734 72.81583,137.0871 127.6588,191.4832 54.84294,54.3961 120.80534,97.6304 192.829208,126.3236 72.023862,28.693 150.051662,42.821 228.117142,41.1971 78.06546,-1.6239 156.10628,-18.9996 228.15619,-50.9405 72.0499,-31.9409 138.05134,-78.4227 192.94636,-136.0663 54.895,-57.6434 98.63954,-126.4042 127.85399,-201.2246 C 830.29079,956.3985 844.9513,875.57635 843.87116,794.71872 842.79105,713.86111 825.97025,633.03031 794.59557,558.19269 763.22093,483.35508 717.31627,414.5682 660.26125,356.8901 603.20626,299.21201 535.04498,252.68676 460.83542,220.69403 386.62586,188.70132 306.4256,171.26496 226.201,169.5718 145.97636,167.87868 65.789681,181.92873 -8.392744,210.53525 -82.57514,239.1418 -150.69572,282.281 -207.69645,336.57322 c -57.00072,54.29224 -102.83754,119.69348 -134.1308,191.1458 -31.29325,71.45231 -48.01907,148.8981 -48.99066,226.37119 -0.97162,77.47308 13.81101,154.9111 43.16113,226.34783 29.35011,71.43676 73.24386,136.81466 128.30164,191.07566 55.05778,54.2611 121.23554,97.3614 193.475303,125.9213 72.239779,28.5597 150.484007,42.5553 228.766437,40.7999 78.28243,-1.7555 156.54073,-19.2619 228.80866,-51.3324 72.2679,-32.0706 138.48787,-78.6814 193.60192,-136.453 55.11404,-57.7714 99.07814,-126.6595 128.51264,-201.60612 29.43452,-74.94657 44.3156,-155.8941 43.45655,-236.87624 C 796.40728,630.98503 779.80807,550.03062 748.65545,475.07025 717.50286,400.10992 671.82074,331.20121 614.98878,273.40217 558.15679,215.60313 490.21903,168.95785 416.23346,136.84597 342.2479,104.73409 262.27213,87.17948 182.27243,85.369003 102.27274,83.558499 22.311486,97.4921 -51.64503,125.98309 c -73.95656,28.491 -141.85079,71.51554 -198.62473,125.69405 -56.77393,54.17851 -102.38351,119.46691 -133.44907,190.80732 -31.06554,71.3404 -47.56322,148.67522 -48.30624,226.03821 -0.743,77.36299 14.26863,154.69185 43.84821,226.02034 29.57958,71.32848 73.70322,136.59899 128.99134,190.75369 55.28811,54.1547 121.6966,97.1496 194.16754,125.6048 72.470934,28.4553 150.94676,42.3471 229.46118,40.4891 78.51443,-1.8583 157.00514,-19.4664 229.50586,-51.6377 72.50073,-32.1715 138.95392,-78.8822 194.30159,-136.7527 55.34766,-57.8705 99.54574,-126.85657 129.21466,-201.90025 C 747.13423,786.0563 762.2501,705.01262 761.6262,623.93526 761.00231,542.85792 744.63863,461.80926 713.72195,386.7556 682.80528,311.70192 637.35947,242.70082 580.76415,184.81036 524.16885,126.9199 456.4681,80.184125 382.71994,47.982711 308.97176,15.78131 229.23374,-1.8618605 149.47217,-3.7599804 69.710576,-5.6581017 -10.012245,8.1888324 -83.72998,36.594116 c -73.71775,28.40528 -141.37283,71.345054 -197.9073,125.439774 -56.53446,54.09473 -101.90425,119.30031 -132.72963,190.55882 -30.82542,71.25854 -47.08263,148.51243 -47.58486,225.79546 -0.50222,77.28306 14.75054,154.53294 44.57153,225.78342 29.82099,71.25047 74.18636,136.44397 129.71652,190.52259 55.53013,54.07862 122.18098,96.99822 194.89459,125.37942 72.713573,28.3811 151.4323,42.1999 230.18997,40.2695 78.75763,-1.9302 157.49185,-19.6097 230.23638,-51.8513 72.74454,-32.2416 139.4418,-79.0216 195.03381,-136.9604 55.59202,-57.93875 100.03474,-126.99214 129.94853,-202.10214 29.91381,-75.10997 45.27485,-156.219 44.89637,-237.36068 -0.37848,-81.1417 -16.4965,-162.25377 -47.16726,-237.36979 C 659.69793,219.58271 614.4983,150.52024 558.14939,92.569342 501.80049,34.618473 434.34643,-12.176739 360.84516,-44.436573 c -73.50129,-32.259845 -152.9922,-49.960474 -232.50642,-51.91504 -79.514248,-1.954578 -158.989476,11.836885 -232.45941,40.1877 -73.46997,28.350812 -140.87704,71.237115 -197.16329,125.279345 -56.28623,54.042228 -101.40757,119.196308 -131.98434,190.404358 -30.57677,71.20802 -46.58515,148.41242 -46.83834,225.64697 -0.25317,77.23454 15.2488,154.43693 45.3192,225.64089 30.07042,71.20399 74.68538,136.35198 130.46532,190.38609 55.77993,54.0341 122.68072,96.91027 195.64443,125.24896 72.963714,28.3386 151.932758,42.1159 230.94088,40.1451 79.0081,-1.9709 157.99296,-19.6897 230.98825,-51.9699 C 426.24676,982.33782 493.19493,935.52029 549.03802,877.54507 604.88113,819.56984 649.57506,750.48099 679.74024,675.33656 709.9054,600.1921 725.51793,519.04962 725.39108,437.8755 725.26426,356.70134 709.39799,275.55787 678.97909,200.4114 648.56023,125.26492 603.6126,56.173006 547.51581,-1.8062848 491.41905,-59.785569 424.21718,-106.60817 350.96825,-138.8944 c -73.24895,-32.28622 -152.4874,-50.01222 -231.7491,-51.99116 -79.261683,-1.97894 -158.484273,11.78918 -231.7015,40.11766 -73.21722,28.32846 -140.3715,71.193447 -196.40482,125.215365 -56.03336,54.021921 -100.90172,119.15671 -131.22543,190.346455 -30.32372,71.18975 -46.07895,148.37688 -46.07895,225.59517 0,77.21829 15.75523,154.40542 46.07895,225.59517 30.32371,71.18975 75.19207,136.32454 131.22543,190.34644 56.03332,54.02195 123.1876,96.88691 196.40482,125.21539 73.217227,28.32847 152.439817,42.0966 231.7015,40.11766 79.2617,-1.97894 158.50015,-19.70495 231.7491,-51.99116 73.24893,-32.28622 140.4508,-79.10882 196.54756,-137.08812 56.09679,-57.97928 101.04442,-127.0712 131.46328,-202.21768 30.4189,-75.14646 46.28512,-156.28995 46.41199,-237.4641 C 725.51793,261.72856 709.90539,180.58608 679.74023,105.44162 649.57506,30.297179 604.88113,-38.791666 549.03802,-96.76689 493.19493,-154.7421 426.24676,-201.55963 353.25144,-233.83975 c -72.99529,-32.28012 -151.98015,-49.99901 -230.98825,-51.96982 -79.008122,-1.9708 -157.977166,11.80647 -230.94088,40.1451 -72.96371,28.33864 -139.8645,71.2148 -195.64443,125.24891 -55.77994,54.034109 -100.39491,119.1821104 -130.46532,190.386094 -30.0704,71.203966 -45.57237,148.406346 -45.3192,225.640886 0.25319,77.23456 16.26157,154.43895 46.83834,225.64698 30.57677,71.20805 75.69811,136.36213 131.98434,190.40435 56.28625,54.04223 123.69332,96.92853 197.16329,125.27935 73.469934,28.35082 152.945162,42.14228 232.45941,40.1877 79.51422,-1.95458 159.00513,-19.6552 232.50642,-51.91503 C 434.34643,792.95494 501.80049,746.15973 558.14939,688.20884 614.4983,630.25795 659.69793,561.19548 690.36867,486.0794 721.03943,410.96337 737.15745,329.85131 737.53593,248.70961 737.91441,167.56792 722.55337,86.458895 692.63956,11.348914 662.72577,-63.761075 618.28305,-132.81446 562.69103,-190.75321 507.09902,-248.69196 440.40176,-295.47199 367.65722,-327.71363 c -72.74453,-32.24165 -151.47875,-49.92104 -230.23639,-51.85135 -78.75766,-1.93033 -157.476387,11.88843 -230.18996,40.26957 -72.71361,28.38113 -139.36446,71.30081 -194.89459,125.37942 -55.53016,54.07862 -99.89553,119.272113 -129.71652,190.522592 -29.82099,71.250477 -45.07375,148.500348 -44.57153,225.783408 0.50223,77.28304 16.75944,154.53693 47.58486,225.79546 30.82538,71.25852 76.19517,136.4641 132.72963,190.55882 56.53447,54.09471 124.18955,97.0345 197.9073,125.43978 73.717735,28.40528 153.440556,42.25221 233.20214,40.35409 79.76158,-1.89811 159.4996,-19.5413 233.24778,-51.7427 C 456.4681,700.59406 524.16885,653.85828 580.76417,595.96783 637.35948,538.07736 682.80529,469.07627 713.72197,394.0226 744.63863,318.96892 761.00232,237.92026 761.62621,156.84292 762.2501,75.765566 747.13423,-5.2781044 717.46531,-80.321774 687.79639,-155.36544 643.59831,-224.35153 588.25065,-282.222 532.90298,-340.09246 466.44979,-386.80325 393.94906,-418.97464 c -72.50072,-32.17142 -150.99143,-49.7796 -229.50586,-51.63772 -78.51442,-1.85813 -156.990246,12.0338 -229.46118,40.48908 -72.47094,28.45526 -138.87943,71.45004 -194.16754,125.60472 -55.28812,54.1547 -99.41176,119.42525 -128.99134,190.75373 -29.57958,71.32849 -44.59121,148.657355 -43.84821,226.02034 0.74302,77.363 17.2407,154.69781 48.30624,226.03821 31.06556,71.34042 76.67514,136.62881 133.44907,190.80732 56.77394,54.17852 124.66817,97.20307 198.62473,125.69406 73.956516,28.49098 153.91777,42.42459 233.91746,40.61408 79.9997,-1.81048 159.97547,-19.36507 233.96103,-51.47696 73.98557,-32.11188 141.92333,-78.75717 198.75532,-136.5562 56.83196,-57.79904 102.51408,-126.70776 133.66667,-201.66809 31.15262,-74.96037 47.75183,-155.91476 48.61092,-236.896888 0.85905,-80.98214 -14.02203,-161.929668 -43.45655,-236.876242 -29.4345,-74.94658 -73.3986,-143.83463 -128.51264,-201.60612 -55.11405,-57.77152 -121.33402,-104.38238 -193.60192,-136.45296 -72.26793,-32.07058 -150.52623,-49.57698 -228.80866,-51.33242 -78.28243,-1.75541 -156.526658,12.24014 -228.766437,40.79996 -72.239763,28.55984 -138.417523,71.66007 -193.475303,125.92117 -55.05778,54.26109 -98.95153,119.63897 -128.30164,191.07571 -29.35012,71.43674 -44.13275,148.874762 -43.16113,226.347836 0.97159,77.473094 17.69741,154.918884 48.99066,226.371204 31.29326,71.45231 77.13008,136.85355 134.1308,191.14578 57.00073,54.29224 125.12131,97.43142 199.303706,126.03798 C 65.789681,598.84945 145.97636,612.8995 226.201,611.20638 306.4256,609.51322 386.62586,592.07687 460.83542,560.08416 535.04498,528.09143 603.20626,481.56617 660.26125,423.88808 717.31627,366.20999 763.22093,297.42311 794.59557,222.58549 825.97025,147.74789 842.79105,66.917074 843.87116,-13.940549 844.9513,-94.79817 830.29079,-175.62031 801.07633,-250.44062 771.86188,-325.26095 728.11734,-394.02184 673.22234,-451.6653 618.32732,-509.30879 552.3259,-555.79074 480.27598,-587.73155 c -72.04991,-31.94078 -150.09073,-49.31654 -228.15619,-50.94043 -78.06548,-1.62393 -156.09328,12.50404 -228.117142,41.19712 -72.023868,28.69307 -137.986268,71.92744 -192.829208,126.32353 -54.84297,54.39606 -98.52243,119.9098 -127.6588,191.48322 -29.13638,71.57345 -43.70582,149.14903 -42.52158,226.760515 1.18422,77.611484 18.12212,155.196545 49.62689,226.788975 31.50476,71.59241 77.55254,137.13461 134.76366,191.56865 57.21112,54.43404 125.541496,97.71586 199.933172,126.46589 74.391638,28.75001 154.786998,42.94438 235.219728,41.3964 80.43271,-1.54799 160.84046,-18.83835 235.25693,-50.68426 C 590.20991,450.78214 658.57752,404.40455 715.83826,346.87492 773.09901,289.34529 819.20881,220.70771 850.788,146.0202 882.36719,71.332701 899.39193,-9.3471657 900.67538,-90.053041 901.95884,-170.75893 887.50104,-251.42851 858.48869,-326.09545 829.47636,-400.76238 785.93331,-469.3691 731.23916,-526.85758 676.54503,-584.34605 610.74384,-630.67224 538.89355,-662.45643 c -71.85027,-31.7842 -149.6921,-49.00257 -227.55921,-50.46828 -77.8671,-1.46573 -155.69716,12.82119 -227.52395,41.67405 -71.826801,28.85286 -137.59274,72.2478 -192.23989,126.80522 -54.64717,54.55743 -98.13147,120.23327 -127.07335,191.96961 -28.94187,71.73635 -43.31747,149.47562 -41.94005,227.25157 1.37744,77.775952 18.50786,155.526264 50.20448,227.28468 31.69664,71.75843 77.93561,137.46741 135.33724,192.06899 57.401651,54.60158 125.921914,98.0517 200.50274,126.97077 74.58085,28.91908 155.1647,43.28327 235.78523,41.90586 C 425.00732,461.62862 505.6022,444.50959 580.2051,412.83573 654.80804,381.1619 723.36142,334.95712 780.80722,277.60105 838.25301,220.245 884.54717,151.78172 916.31002,77.269241 948.0729,2.7567683 965.28058,-77.747318 966.74629,-158.2767 c 1.46571,-80.52937 -12.81054,-161.02171 -41.64205,-235.51069 -28.83152,-74.48898 -72.19443,-142.91703 -126.70919,-200.22612 -54.5147,-57.30907 -120.13721,-103.45512 -191.80954,-135.05848 -71.67235,-31.60337 -149.3369,-48.64019 -227.02752,-49.92365 -77.6906,-1.28345 -155.34489,13.18644 -226.99666,42.22294 -71.65175,29.03654 -137.243381,72.61581 -191.716983,127.35831 -54.473597,54.74248 -97.785087,120.60408 -126.554907,192.52688 -28.76979,71.92278 -42.97406,149.84919 -41.42607,227.81296 1.548,77.96376 18.84825,155.902573 50.71393,227.850175 31.8657,71.947615 78.27295,137.846425 135.842152,192.638555 57.569175,54.79209 126.256198,98.43341 201.003058,127.54436 74.74684,29.11095 155.49594,43.66767 236.28093,42.48342 80.785,-1.18421 161.54357,-18.1094 236.30942,-49.58875 74.76583,-31.47933 143.48131,-77.48896 201.08847,-134.64924 57.60713,-57.16026 104.06186,-125.427095 135.98447,-199.742484 31.9227,-74.315377 49.2893,-154.621746 50.9132,-234.952756 1.6239,-80.33102 -12.4949,-160.62437 -41.1699,-234.9137 -28.67487,-74.28936 -71.882,-142.51717 -126.24176,-199.62539 -54.35973,-57.10821 -119.82805,-103.05278 -191.34701,-134.45403 -71.51896,-31.40124 -149.03099,-48.23534 -226.56983,-49.31548 -77.53886,-1.08014 -155.04224,13.59368 -226.54387,42.83474 -71.50166,29.24107 -136.94398,73.0255 -191.269127,127.97372 -54.325129,54.94821 -97.488983,121.01616 -126.111963,193.14585 -28.623,72.12973 -42.68128,150.26362 -40.98814,228.43549 1.69316,78.17185 19.13773,156.319327 51.14689,228.476177 32.00918,72.156855 78.559109,138.265503 136.270077,193.268003 57.710993,55.00248 126.538983,98.85475 201.425933,128.17722 74.88695,29.32246 155.77529,44.09125 236.69871,43.11965 80.92339,-0.97157 161.81955,-17.6836 236.72207,-48.94918 74.90252,-31.26561 143.75386,-77.06096 201.496,-134.00639 57.74212,-56.94545 104.33092,-124.996912 136.38682,-199.096405 32.0559,-74.099485 49.555,-154.189415 51.3104,-234.303465 1.7554,-80.11405 -12.2327,-160.18994 -40.7779,-234.26126 -28.5452,-74.07135 -71.6233,-142.08063 -125.8551,-198.96979 -54.23173,-56.88918 -119.57288,-102.6142 -190.96558,-133.79538 -71.39268,-31.18119 -148.77932,-47.79473 -226.19367,-48.65381 -77.41437,-0.85906 -154.79412,14.03632 -226.17304,43.49945 -71.3789,29.46311 -136.69941,73.47006 -190.90362,128.64133 -54.204191,55.17126 -97.24798,121.46271 -125.751816,193.81641 -28.503849,72.3537 -42.443864,150.71208 -40.633364,229.10888 1.8105,78.39679 19.371527,156.76968 51.496226,229.152411 C 38.581149,14.196505 85.2457,80.531473 143.07044,135.76077 c 57.82469,55.22927 126.76551,99.30881 201.76437,128.85897 74.99889,29.55016 155.99823,44.54711 237.03169,43.80411 81.03351,-0.74303 162.03879,-17.22598 237.04957,-48.26213 75.0108,-31.03614 143.96946,-76.60161 201.81803,-133.31671 57.8484,-56.715134 104.5429,-124.5358448 136.7033,-198.40416 32.1605,-73.86833 49.7632,-153.72666 51.6213,-233.60872 1.858,-79.88208 -12.0284,-159.72553 -40.4728,-233.56404 -28.4443,-73.83855 -71.4226,-141.6146 -125.5553,-198.27015 -54.1327,-56.65555 -119.37589,-102.14656 -190.67148,-133.09334 -71.29559,-30.94681 -148.58609,-47.32556 -225.90522,-47.94946 -77.31914,-0.62389 -154.60464,14.50705 -225.89022,44.20609 -71.2856,29.69904 -136.51373,73.94231 -190.62651,129.35023 -54.11275,55.40791 -97.06606,121.9364 -125.48036,194.5275 -28.414327,72.59109 -42.265745,151.18722 -40.36764,229.82213 1.898119,78.63488 19.545798,157.24623 51.75623,229.867745 32.21042,72.621523 78.95973,139.195646 136.86825,194.664405 57.90851,55.46876 126.93216,99.78811 202.0129,129.57841 75.08072,29.79029 156.161,45.0277 237.27443,44.52547 81.1134,-0.50223 162.19769,-16.74408 237.28649,-47.5388 75.08883,-30.79471 144.12453,-76.11844 202.04913,-132.591533 57.9247,-56.47307 104.6941,-124.051447 136.9286,-197.677122 32.2345,-73.625685 49.9104,-153.241095 51.8408,-232.879925 1.9304,-79.63882 -11.885,-159.23876 -40.2591,-232.83349 -28.374,-73.59474 -71.283,-141.1267 -125.3475,-197.53793 -54.0644,-56.4112 -119.2403,-101.65759 -190.46962,-132.35947 -71.22928,-30.70192 -148.45442,-46.8355 -225.7092,-47.21398 -77.25478,-0.3785 -154.4769,14.99812 -225.70011,44.94309 -71.2232,29.94496 -136.38995,74.4344 -190.44229,130.08874 -54.05235,55.65434 -96.94623,122.42947 -125.30212,195.26744 -28.35585,72.83799 -42.14986,151.68126 -40.19528,230.5635 1.95458,78.88225 19.65773,157.74118 51.92263,230.61048 32.26489,72.869323 79.0677,139.691459 137.0287,195.408445 57.96097,55.716985 127.03611,100.284755 202.16735,130.323705 75.13122,30.03892 156.26097,45.52518 237.42291,45.272 81.16194,-0.2532 162.29371,-16.24583 237.42903,-46.79114 75.1353,-30.54532 144.2164,-75.61943 202.1857,-131.84272 57.9691,-56.223312 104.7821,-123.551734 137.0591,-196.92728 32.2771,-73.37555 49.9945,-152.74066 51.9653,-232.12903 1.9707,-79.38837 -11.8051,-158.73769 -40.1406,-232.08164 -28.3355,-73.34396 -71.2072,-140.625 -125.2352,-196.78512 -54.0281,-56.16015 -119.1683,-101.1553 -190.3633,-131.60585 -71.19473,-30.45053 -148.38642,-46.33264 -225.60876,-46.45947 -77.22236,-0.12685 -154.41303,15.5015 -225.60581,45.69834 -71.19278,30.19685 -136.33009,74.93831 -190.35404,130.84475 -54.02394,55.90645 -96.89044,122.93382 -125.21991,196.02416 -28.32949,73.09032 -42.09812,152.18601 -40.11918,231.3208 1.97893,79.13478 19.70544,158.24634 51.99268,231.36839 32.28724,73.122038 79.11135,140.196995 137.09266,196.166877 57.98131,55.969883 127.07573,100.790643 202.22525,131.082633 75.14953,30.29199 156.29655,46.03136 237.47474,46.03136 81.17818,0 162.32517,-15.73937 237.47467,-46.03136 75.1495,-30.29199 144.2442,-75.11275 202.2252,-131.082633 57.9815,-55.969882 104.8055,-123.044839 137.0928,-196.166877 32.2873,-73.12205 50.0137,-152.23361 51.9927,-231.36839 1.9789,-79.13479 -11.7897,-158.23048 -40.1192,-231.3208 -28.3295,-73.09034 -71.196,-140.11771 -125.2198,-196.02416 -54.0241,-55.90644 -119.1613,-100.6479 -190.3542,-130.84475 -71.1928,-30.19684 -148.3834,-45.82521 -225.60578,-45.69834 -77.22235,0.12685 -154.41405,16.00894 -225.60886,46.45947 -71.19482,30.45055 -136.33518,75.4457 -190.36319,131.60585 -54.02799,56.16012 -96.89959,123.44116 -125.23515,196.78512 -28.3356,73.34395 -42.11134,152.69327 -40.14054,232.08164 1.97082,79.38837 19.68817,158.75348 51.96525,232.12903 32.27704,73.375546 79.08998,140.703968 137.0591,196.92728 57.96911,56.22329 127.05034,101.2974 202.18562,131.84272 75.13533,30.54531 156.26707,46.53794 237.42901,46.79114 81.16204,0.25318 162.29174,-15.23308 237.42294,-45.272 75.1312,-30.03895 144.2065,-74.60672 202.1674,-130.323705 57.961,-55.716986 104.7637,-122.539122 137.0286,-195.408445 32.2649,-72.8693 49.9681,-151.72823 51.9227,-230.61048 1.9545,-78.88224 -11.8395,-157.72551 -40.1952,-230.5635 -28.3559,-72.83797 -71.2499,-139.6131 -125.3021,-195.26744 -54.0524,-55.65434 -119.2192,-100.14378 -190.4424,-130.08874 -71.2231,-29.94497 -148.4453,-45.32159 -225.7001,-44.94309 -77.25482,0.37848 -154.47997,16.51206 -225.70924,47.21398 -71.22926,30.70188 -136.4051,75.94827 -190.4696,132.35947 -54.06447,56.41123 -96.97354,123.94319 -125.3476,197.53793 -28.37407,73.59473 -42.18929,153.19467 -40.25898,232.83349 1.93031,79.63883 19.60618,159.25424 51.84073,232.879925 32.23457,73.625675 79.00401,141.204052 136.92863,197.677122 57.92463,56.473093 126.96034,101.796823 202.04912,132.591533 75.08879,30.79472 156.17307,47.03657 237.28644,47.5388 81.1134,0.50223 162.1937,-14.73518 237.2746,-44.52547 75.0807,-29.7903 144.1044,-74.10965 202.0129,-129.57841 57.9085,-55.468759 104.6578,-122.042882 136.868,-194.664405 32.2106,-72.621515 49.8583,-151.232865 51.7564,-229.867745 1.8982,-78.63491 -11.9533,-157.23104 -40.3677,-229.82213 -28.4143,-72.5911 -71.3677,-139.11959 -125.4805,-194.5275 -54.1126,-55.40792 -119.3406,-99.65119 -190.6263,-129.35023 -71.2857,-29.69904 -148.5711,-44.82998 -225.8903,-44.20609 -77.319,0.6239 -154.60958,17.00265 -225.90519,47.94946 -71.2956,30.94678 -136.53873,76.43779 -190.67148,133.09334 -54.13278,56.65555 -97.11108,124.4316 -125.55538,198.27015 -28.44429,73.83851 -42.33075,153.68196 -40.47262,233.56404 1.85813,79.88206 19.46083,159.74039 51.62126,233.60872 32.16043,73.8683152 78.85476,141.689026 136.70329,198.40416 57.84854,56.7151 126.80721,102.28057 201.81798,133.31671 75.01078,31.03615 156.01604,47.5191 237.04944,48.26213 81.0337,0.743 162.0329,-14.25395 237.0318,-43.80411 74.9989,-29.55016 143.9397,-73.6297 201.7644,-128.85897 57.8246,-55.229297 104.4895,-121.564265 136.6141,-193.946989 32.1245,-72.382731 49.6857,-150.755621 51.4961,-229.152411 1.8106,-78.3968 -12.1295,-156.75518 -40.6332,-229.10888 -28.5038,-72.3537 -71.5476,-138.64515 -125.7519,-193.81641 -54.2041,-55.17127 -119.5247,-99.17822 -190.9037,-128.64133 -71.3789,-29.46313 -148.7585,-44.35851 -226.173,-43.49945 -77.4143,0.85908 -154.8009,17.47262 -226.19367,48.65381 -71.39269,31.18118 -136.73385,76.9062 -190.96558,133.79538 -54.23173,56.88916 -97.30994,124.89844 -125.85508,198.96979 -28.54516,74.07132 -42.53336,154.14721 -40.77794,234.26126 1.75543,80.11405 19.2545,160.20398 51.31038,234.303465 32.05588,74.099493 78.64472,142.150955 136.38686,199.096405 57.74213,56.94543 126.59348,102.74078 201.49603,134.00639 74.9025,31.26558 155.7987,47.97761 236.7221,48.94918 80.9234,0.9716 161.8117,-13.79719 236.6987,-43.11965 74.8869,-29.32247 143.7149,-73.17474 201.4259,-128.17722 57.711,-55.0025 104.261,-121.111148 136.27,-193.268003 32.0091,-72.15685 49.4538,-150.304327 51.1471,-228.476177 1.693,-78.17187 -12.3654,-156.30576 -40.9883,-228.43549 -28.6228,-72.12969 -71.7869,-138.19764 -126.1119,-193.14585 -54.3251,-54.94822 -119.7675,-98.73265 -191.2691,-127.97372 -71.5017,-29.24106 -149.0052,-43.91488 -226.5439,-42.83474 -77.5388,1.08014 -155.0509,17.91424 -226.57,49.31548 -71.51884,31.40125 -136.98715,77.34582 -191.3469,134.45403 -54.35976,57.10822 -97.56688,125.33603 -126.2418,199.62539 -28.67492,74.28933 -42.79378,154.58268 -41.16987,234.9137 1.6239,80.33101 18.99057,160.637379 50.91319,234.952756 31.92263,74.315389 78.37735,142.582224 135.98451,199.742484 57.60716,57.16028 126.32267,103.16991 201.08847,134.64924 74.766,31.47935 155.5244,48.40454 236.3096,49.58875 80.785,1.18425 161.5339,-13.37247 236.2808,-42.48342 74.7469,-29.11095 143.434,-72.75227 201.0031,-127.54436 57.5692,-54.79213 103.9765,-120.69094 135.842,-192.638555 31.8657,-71.947602 49.166,-149.886415 50.7139,-227.850175 1.5481,-77.96377 -12.6561,-155.89018 -41.426,-227.81296 -28.7697,-71.9228 -72.0812,-137.7844 -126.555,-192.52688 -54.4735,-54.7425 -120.065,-98.32177 -191.7167,-127.35831 -71.6519,-29.0365 -149.3061,-43.50639 -226.9968,-42.22294 -77.6906,1.28346 -155.3552,18.32028 -227.0276,49.92365 -71.6724,31.60336 -137.29482,77.74941 -191.80955,135.05848 -54.51473,57.30909 -97.87765,125.73714 -126.70918,200.22612 -28.8315,74.48898 -43.10775,154.98132 -41.64204,235.51069 1.46572,80.529382 18.6734,161.0334683 50.43627,235.545941 31.76283,74.512479 78.05701,142.975759 135.50281,200.331809 57.44579,57.35607 125.99919,103.56085 200.60229,135.23468 74.6027,31.67386 155.1976,48.79289 235.8181,50.17031 80.6205,1.37741 161.2044,-12.98678 235.7854,-41.90586 74.5807,-28.91907 143.1009,-72.36919 200.5026,-126.97077 57.4018,-54.60158 103.6407,-120.31056 135.3373,-192.06899 31.6968,-71.758416 48.8271,-149.508728 50.2044,-227.28468 1.3774,-77.77595 -12.9981,-155.51522 -41.9399,-227.25157 -28.9419,-71.73634 -72.4262,-137.41218 -127.0733,-191.96961 -54.6473,-54.55742 -120.4132,-97.95236 -192.2399,-126.80522 -71.8269,-28.85286 -149.6568,-43.13978 -227.5241,-41.67405 -77.8671,1.46571 -155.709,18.68408 -227.5593,50.46828 -71.8503,31.78419 -137.6514,78.11038 -192.3455,135.59885 -54.69419,57.48848 -98.23724,126.0952 -127.24957,200.76213 -29.01234,74.66694 -43.47015,155.33652 -42.18669,236.042409 1.28345,80.7058753 18.30819,161.385742 49.88738,236.073241 31.5792,74.68751 77.68899,143.32509 134.94978,200.85472 57.2607,57.52963 125.6284,103.90722 200.0449,135.75314 74.4164,31.84591 154.8241,49.13627 235.2568,50.68426 80.4328,1.54798 160.8282,-12.64639 235.2198,-41.3964 74.3916,-28.75003 142.722,-72.03185 199.933,-126.46589 57.2113,-54.43404 103.259,-119.97624 134.7639,-191.56865 31.5048,-71.59243 48.4426,-149.177491 49.6267,-226.788975 1.1843,-77.611485 -13.3851,-155.187065 -42.5214,-226.760515 -29.1365,-71.57342 -72.8159,-137.08716 -127.6588,-191.48322 -54.8431,-54.39609 -120.8054,-97.63046 -192.8294,-126.32353 -72.0237,-28.69308 -150.0515,-42.82105 -228.117,-41.19712 -78.0653,1.62389 -156.1063,18.99965 -228.1561,50.94043 -72.05,31.94081 -138.0515,78.42276 -192.9466,136.06625 -54.8949,57.64346 -98.63946,126.40435 -127.85391,201.22468 -29.21444,74.82031 -43.87497,155.64245 -42.79483,236.500071 1.08012,80.857623 17.90091,161.688439 49.27558,236.526039 31.37466,74.83762 77.27926,143.6245 134.33436,201.30259 57.055,57.67809 125.2163,104.20335 199.426,136.19608 74.2093,31.99271 154.4096,49.42906 234.6342,51.12222 80.2247,1.69312 160.4114,-12.35693 234.5938,-40.96344 74.1824,-28.60656 142.3029,-71.74574 199.3037,-126.03798 57.0009,-54.29223 102.8374,-119.69347 134.1308,-191.14578 31.2932,-71.45232 48.019,-148.89811 48.9906,-226.371204 0.9717,-77.473074 -13.8109,-154.911096 -43.161,-226.347836 -29.3502,-71.43674 -73.2439,-136.81462 -128.3018,-191.07571 -55.0577,-54.2611 -121.2354,-97.36133 -193.4752,-125.92117 -72.2398,-28.55982 -150.4841,-42.55537 -228.7664,-40.79996 -78.2825,1.75544 -156.5408,19.26184 -228.8087,51.33242 -72.2679,32.07058 -138.4879,78.68144 -193.602,136.45296 -55.114,57.77149 -99.0781,126.65954 -128.51259,201.60612 -29.43451,74.946574 -44.31559,155.894102 -43.45654,236.876242 0.85908,80.982128 17.45829,161.936518 48.61091,236.896888 31.15262,74.96033 76.83472,143.86905 133.66662,201.66809 56.832,57.79903 124.7698,104.44432 198.7555,136.5562 73.9854,32.11189 153.9613,49.66648 233.9609,51.47696 79.9997,1.81051 159.9609,-12.1231 233.9175,-40.61408 73.9565,-28.49099 141.8508,-71.51554 198.6247,-125.69406 56.7741,-54.17851 102.3837,-119.4669 133.4491,-190.80732 31.0655,-71.3404 47.5632,-148.67521 48.3061,-226.03821 0.7432,-77.362985 -14.2684,-154.69185 -43.848,-226.02034 -29.5796,-71.32848 -73.7033,-136.59903 -128.9914,-190.75373 -55.2882,-54.15468 -121.6967,-97.14946 -194.1676,-125.60472 -72.4709,-28.45528 -150.9467,-42.34721 -229.4612,-40.48908 -78.5143,1.85812 -157.0051,19.4663 -229.5058,51.63772 -72.5008,32.17139 -138.954,78.88218 -194.3016,136.75264 -55.3476,57.87047 -99.5458,126.85656 -129.2146,201.900226 -29.66899,75.0436696 -44.78489,156.08734 -44.16098,237.164694 0.6239,81.07734 16.98759,162.126 47.90428,237.17968 30.9166,75.05367 76.3625,144.05476 132.9577,201.94523 56.5954,57.89045 124.2962,104.62623 198.0444,136.82763 73.748,32.2014 153.4862,49.84459 233.2477,51.7427 79.7615,1.89812 159.4845,-11.94881 233.2022,-40.35409 73.7178,-28.40528 141.3728,-71.34507 197.9073,-125.43978 56.5344,-54.09472 101.9041,-119.3003 132.7296,-190.55882 30.8254,-71.25853 47.0827,-148.51242 47.5847,-225.79546 0.5024,-77.28306 -14.7504,-154.532931 -44.5714,-225.783408 -29.821,-71.250479 -74.1863,-136.443972 -129.7166,-190.522592 -55.53,-54.07861 -122.1808,-96.99829 -194.8944,-125.37942 -72.7138,-28.38114 -151.4325,-42.1999 -230.1902,-40.26957 -78.7575,1.93031 -157.4917,19.6097 -230.2364,51.85135 -72.7445,32.24164 -139.4415,79.02167 -195.0335,136.96042 -55.5922,57.93875 -100.0349,126.992135 -129.9487,202.102124 -29.9138,75.109981 -45.2749,156.219006 -44.8964,237.360696 0.3785,81.1417 16.4965,162.25376 47.1673,237.36979 30.6706,75.11608 75.8703,144.17855 132.2194,202.12944 56.3488,57.95089 123.8029,104.7461 197.3041,137.00593 73.5014,32.25983 152.9922,49.96045 232.5064,51.91503 79.5143,1.95458 158.9894,-11.83688 232.4595,-40.1877 73.4699,-28.35082 140.8771,-71.23712 197.1632,-125.27935 56.2862,-54.04222 101.4076,-119.1963 131.9843,-190.40435 30.5769,-71.20803 46.5852,-148.41242 46.8384,-225.64698 0.2532,-77.23454 -15.2489,-154.43692 -45.3192,-225.640886 -30.0704,-71.2039836 -74.6853,-136.351985 -130.4654,-190.386094 -55.7799,-54.03411 -122.6807,-96.91027 -195.6444,-125.24891 -72.9636,-28.33863 -151.9328,-42.1159 -230.9408,-40.1451 -79.0082,1.97081 -157.9929,19.6897 -230.9882,51.96982 -72.9955,32.28012 -139.9435,79.09765 -195.7867,137.07286 -55.8431,57.975224 -100.5369,127.064069 -130.7021,202.20851 -30.1653,75.14446 -45.7778,156.28694 -45.6509,237.46107 0.1268,81.17415 15.9931,162.31764 46.412,237.4641 30.4189,75.14648 75.3663,144.2384 131.4633,202.21768 56.0967,57.9793 123.2986,104.8019 196.5475,137.08812 73.2491,32.28621 152.4875,50.01222 231.7492,51.99116 79.2615,1.97894 158.4842,-11.78919 231.7014,-40.11766 73.2173,-28.32848 140.3714,-71.19344 196.4048,-125.21539 56.0333,-54.0219 100.9018,-119.15669 131.2255,-190.34644 30.3237,-71.18975 46.0788,-148.37688 46.0788,-225.59517 z"
       id="path10453" />
  </g>
  <g
     transform="translate(-380.61713,-105.55324)"
     inkscape:groupmode="layer"
     id="layer2"
     inkscape:label="unsafe"
     style="display:none;opacity:0.25899999">
    <path
       inkscape:connector-curvature="0"
       style="color:#000000;clip-rule:nonzero;display:inline;overflow:visible;visibility:visible;opacity:1;isolation:auto;mix-blend-mode:normal;color-interpolation:sRGB;color-interpolation-filters:linearRGB;solid-color:#000000;solid-opacity:1;fill:#000000;fill-opacity:1;fill-rule:nonzero;stroke:none;stroke-width:2;stroke-linecap:square;stroke-linejoin:bevel;stroke-miterlimit:4;stroke-dasharray:none;stroke-dashoffset:0;stroke-opacity:1;marker:none;marker-start:none;marker-mid:none;marker-end:none;paint-order:normal;color-rendering:auto;image-rendering:auto;shape-rendering:auto;text-rendering:auto;enable-background:accumulate"
       d="m 0,0 0,198.5 1600,0 L 1600,0 0,0 Z m 0,619.5 0,280.5 1600,0 0,-280.5 -1600,0 z"
       id="rect7208" />
    <rect
       style="color:#000000;clip-rule:nonzero;display:inline;overflow:visible;visibility:visible;opacity:1;isolation:auto;mix-blend-mode:normal;color-interpolation:sRGB;color-interpolation-filters:linearRGB;solid-color:#000000;solid-opacity:1;fill:#000000;fill-opacity:1;fill-rule:nonzero;stroke:#ffffff;stroke-width:2;stroke-linecap:square;stroke-linejoin:bevel;stroke-miterlimit:4;stroke-dasharray:none;stroke-dashoffset:0;stroke-opacity:1;marker:none;marker-start:none;marker-mid:none;marker-end:none;paint-order:normal;color-rendering:auto;image-rendering:auto;shape-rendering:auto;text-rendering:auto;enable-background:accumulate"
       id="rect7185"
       width="330"
       height="330"
       x="47.022602"
       y="431.30301"
       rx="20"
       ry="20" />
    <rect
       style="color:#000000;clip-rule:nonzero;display:inline;overflow:visible;visibility:visible;opacity:1;isolation:auto;mix-blend-mode:normal;color-interpolation:sRGB;color-interpolation-filters:linearRGB;solid-color:#000000;solid-opacity:1;fill:#000000;fill-opacity:1;fill-rule:nonzero;stroke:#ffffff;stroke-width:2;stroke-linecap:square;stroke-linejoin:bevel;stroke-miterlimit:4;stroke-dasharray:none;stroke-dashoffset:0;stroke-opacity:1;marker:none;marker-start:none;marker-mid:none;marker-end:none;paint-order:normal;color-rendering:auto;image-rendering:auto;shape-rendering:auto;text-rendering:auto;enable-background:accumulate"
       id="rect7185-3"
       width="330"
       height="330"
       x="157.0226"
       y="511.30301"
       rx="20"
       ry="20" />
  </g>
</svg>
