<?xml version="1.0" encoding="UTF-8" standalone="no"?>
<!-- Created with Inkscape (http://www.inkscape.org/) -->

<svg
   xmlns:dc="http://purl.org/dc/elements/1.1/"
   xmlns:cc="http://creativecommons.org/ns#"
   xmlns:rdf="http://www.w3.org/1999/02/22-rdf-syntax-ns#"
   xmlns:svg="http://www.w3.org/2000/svg"
   xmlns="http://www.w3.org/2000/svg"
   xmlns:xlink="http://www.w3.org/1999/xlink"
   xmlns:sodipodi="http://sodipodi.sourceforge.net/DTD/sodipodi-0.dtd"
   xmlns:inkscape="http://www.inkscape.org/namespaces/inkscape"
   id="svg2"
   version="1.1"
   inkscape:version="0.91 r13725"
   width="1600"
   height="900"
   viewBox="0 0 1600 900"
   sodipodi:docname="twitter-cover-photo-light.svg"
   inkscape:export-filename="/home/garrett/Downloads/social-media/twitter-cover-photo-light.png"
   inkscape:export-xdpi="90"
   inkscape:export-ydpi="90">
  <sodipodi:namedview
     pagecolor="#ffffff"
     bordercolor="#666666"
     borderopacity="1"
     objecttolerance="10"
     gridtolerance="10"
     guidetolerance="10"
     inkscape:pageopacity="0"
     inkscape:pageshadow="2"
     inkscape:window-width="640"
     inkscape:window-height="480"
     id="namedview4"
     showgrid="false"
     inkscape:showpageshadow="false"
     inkscape:zoom="1"
     inkscape:cx="608.25497"
     inkscape:cy="604.01683"
     inkscape:current-layer="layer1" />
  <metadata
     id="metadata8">
    <rdf:RDF>
      <cc:Work
         rdf:about="">
        <dc:format>image/svg+xml</dc:format>
        <dc:type
           rdf:resource="http://purl.org/dc/dcmitype/StillImage" />
        <dc:title />
      </cc:Work>
    </rdf:RDF>
  </metadata>
  <defs
     id="defs6">
    <linearGradient
       inkscape:collect="always"
       id="linearGradient10496-2">
      <stop
         style="stop-color:#ffffff;stop-opacity:0"
         offset="0"
         id="stop10508" />
      <stop
         id="stop10512"
         offset="0.1"
         style="stop-color:#7c7c7c;stop-opacity:0" />
      <stop
         style="stop-color:#000000;stop-opacity:1"
         offset="1"
         id="stop10510" />
    </linearGradient>
    <radialGradient
       gradientUnits="userSpaceOnUse"
       gradientTransform="matrix(0.88352502,0,0,0.88252892,21.09342,45.859434)"
       r="1178.0181"
       fy="390.3891"
       fx="881.58972"
       cy="390.3891"
       cx="881.58972"
       id="radialGradient10504"
       xlink:href="#linearGradient10496-2"
       inkscape:collect="always" />
  </defs>
  <g
     inkscape:groupmode="layer"
     id="layer1"
     inkscape:label="bg">
    <flowRoot
       transform="translate(-67.000206,4.6127639e-6)"
       xml:space="preserve"
       id="flowRoot7264"
       style="font-style:normal;font-variant:normal;font-weight:normal;font-stretch:normal;font-size:26.36137009px;line-height:125%;font-family:Montserrat;-inkscape-font-specification:Montserrat;text-align:center;letter-spacing:0px;word-spacing:0px;text-anchor:middle;fill:#b9b9b9;fill-opacity:1;stroke:none;stroke-width:1px;stroke-linecap:butt;stroke-linejoin:miter;stroke-opacity:1"><flowRegion
         id="flowRegion7266"><rect
           id="rect7268"
           width="1492.6394"
           height="452.24396"
           x="119.93497"
           y="261.62546"
           style="font-style:normal;font-variant:normal;font-weight:normal;font-stretch:normal;font-family:Montserrat;-inkscape-font-specification:Montserrat;fill:#b9b9b9;fill-opacity:1" /></flowRegion><flowPara
         id="flowPara7272">Brno, Czech Republic</flowPara><flowPara
         id="flowPara7274">January 27 - 29, 2017</flowPara><flowPara
         id="flowPara7276" /></flowRoot>    <flowRoot
       transform="translate(-65.661765,1.1523564e-6)"
       xml:space="preserve"
       id="flowRoot7264-6"
       style="font-style:normal;font-variant:normal;font-weight:normal;font-stretch:normal;font-size:34.12677002px;line-height:125%;font-family:Montserrat;-inkscape-font-specification:Montserrat;text-align:center;letter-spacing:0px;word-spacing:0px;text-anchor:middle;fill:#9c92e7;fill-opacity:1;stroke:none;stroke-width:1px;stroke-linecap:butt;stroke-linejoin:miter;stroke-opacity:1"><flowRegion
         id="flowRegion7266-7"><rect
           id="rect7268-5"
           width="1932.3336"
           height="585.46375"
           x="-99.888"
           y="472.79935"
           style="font-style:normal;font-variant:normal;font-weight:normal;font-stretch:normal;font-family:Montserrat;-inkscape-font-specification:Montserrat;fill:#9c92e7;fill-opacity:1" /></flowRegion><flowPara
         id="flowPara7276-6"
         style="font-style:normal;font-variant:normal;font-weight:normal;font-stretch:normal;font-family:'Roboto Mono';-inkscape-font-specification:'Roboto Mono';fill:#9c92e7;fill-opacity:1">#DEFINEfuture</flowPara></flowRoot>    <image
       sodipodi:absref="/home/garrett/Project/DevConf/devconfcz/social-media/twitter/../_shared_assets/petrov_brno.png"
       xlink:href="../_shared_assets/petrov_brno.png"
       width="354.11612"
       height="411.82999"
       preserveAspectRatio="none"
       id="image7323"
       x="1145.2037"
       y="212.66998" />
    <path
       id="rect7326"
       d="M 0 620 L 0 900 L 1600 900 L 1600 620 L 0 620 z "
       style="display:inline;opacity:1;color:#000000;clip-rule:nonzero;overflow:visible;visibility:visible;isolation:auto;mix-blend-mode:normal;color-interpolation:sRGB;color-interpolation-filters:linearRGB;solid-color:#000000;solid-opacity:1;fill:#999999;fill-opacity:1;fill-rule:nonzero;stroke:none;stroke-width:2;stroke-linecap:square;stroke-linejoin:bevel;stroke-miterlimit:4;stroke-dasharray:none;stroke-dashoffset:0;stroke-opacity:1;marker:none;marker-start:none;marker-mid:none;marker-end:none;paint-order:normal;color-rendering:auto;image-rendering:auto;shape-rendering:auto;text-rendering:auto;enable-background:accumulate" />
    <g
       inkscape:label="Layer 1"
       id="layer1-1"
       transform="translate(902.52259,363.13432)">
      <path
         inkscape:connector-curvature="0"
         style="color:#000000;clip-rule:nonzero;display:inline;overflow:visible;visibility:visible;opacity:1;isolation:auto;mix-blend-mode:normal;color-interpolation:sRGB;color-interpolation-filters:linearRGB;solid-color:#000000;solid-opacity:1;fill:#333333;fill-opacity:1;fill-rule:nonzero;stroke:none;stroke-width:40;stroke-linecap:butt;stroke-linejoin:miter;stroke-miterlimit:4;stroke-dasharray:none;stroke-dashoffset:0;stroke-opacity:1;marker:none;marker-start:none;marker-mid:none;marker-end:none;paint-order:normal;color-rendering:auto;image-rendering:auto;shape-rendering:auto;text-rendering:auto;enable-background:accumulate"
         d="m 333.40625,113.38086 a 29.751881,29.73583 0 0 1 -18.93555,6.83008 29.751881,29.73583 0 0 1 -18.93554,-6.81641 23.95446,8.7491608 0 0 0 -5.01563,5.33985 23.95446,8.7491608 0 0 0 23.95508,8.74804 23.95446,8.7491608 0 0 0 23.95508,-8.74804 23.95446,8.7491608 0 0 0 -5.02344,-5.35352 z"
         transform="translate(-374.78601,-47.423442)"
         id="path7824-4-3-6-6-7-2-1-6-3-31-4-4-6-2-6-53-7-7-3-72-9-4-5-4-2" />
      <path
         inkscape:connector-curvature="0"
         style="color:#000000;clip-rule:nonzero;display:inline;overflow:visible;visibility:visible;opacity:1;isolation:auto;mix-blend-mode:normal;color-interpolation:sRGB;color-interpolation-filters:linearRGB;solid-color:#000000;solid-opacity:1;fill:#333333;fill-opacity:1;fill-rule:nonzero;stroke:none;stroke-width:40;stroke-linecap:butt;stroke-linejoin:miter;stroke-miterlimit:4;stroke-dasharray:none;stroke-dashoffset:0;stroke-opacity:1;marker:none;marker-start:none;marker-mid:none;marker-end:none;paint-order:normal;color-rendering:auto;image-rendering:auto;shape-rendering:auto;text-rendering:auto;enable-background:accumulate"
         d="m 314.47461,47.34375 a 39.155037,39.133911 0 0 0 -39.1543,39.134766 39.155037,39.133911 0 0 0 39.1543,39.132814 39.155037,39.133911 0 0 0 39.1543,-39.132814 39.155037,39.133911 0 0 0 -39.1543,-39.134766 z m -0.004,9.394531 A 29.751881,29.73583 0 0 1 344.22266,86.474609 29.751881,29.73583 0 0 1 314.4707,116.21094 29.751881,29.73583 0 0 1 284.71875,86.474609 29.751881,29.73583 0 0 1 314.4707,56.738281 Z"
         transform="translate(-374.78601,-47.423442)"
         id="path7824-4-3-6-6-7-2-1-6-3-31-4-4-6-4-0-6-6-2-6-7-9-7" />
      <path
         style="font-style:normal;font-variant:normal;font-weight:bold;font-stretch:normal;font-size:medium;line-height:125%;font-family:Montserrat;-inkscape-font-specification:'Montserrat Bold';text-align:end;letter-spacing:-10.00000095px;word-spacing:0px;text-anchor:end;fill:#333333;fill-opacity:1;stroke:none;stroke-width:1px;stroke-linecap:butt;stroke-linejoin:miter;stroke-opacity:1"
         d="m -266.66296,2.918441 0,72.679683 54.18945,0 -5.76758,-14.34765 -32.20117,0 0,-15.078127 26.14063,0 -5.5586,-13.828125 -20.58203,0 0,-14.972656 40.18359,0 0,-14.453125 -56.40429,0 z"
         id="path8253-6-1-9-2-0-5-7-6-7-0"
         inkscape:connector-curvature="0" />
      <path
         inkscape:connector-curvature="0"
         id="path8255-06-5-2-2-8-2-5-0-8-9"
         style="font-style:normal;font-variant:normal;font-weight:bold;font-stretch:normal;font-size:medium;line-height:125%;font-family:Montserrat;-inkscape-font-specification:'Montserrat Bold';text-align:end;letter-spacing:-10.00000095px;word-spacing:0px;text-anchor:end;fill:#333333;fill-opacity:1;stroke:none;stroke-width:1px;stroke-linecap:butt;stroke-linejoin:miter;stroke-opacity:1"
         d="m -188.80518,49.188321 18.507,-46.2691999 17.572,0 -29.217,72.6790029 -13.725,0 -29.217,-72.6790029 17.572,0 18.508,46.2691999 z"
         inkscape:export-filename="./devconf-crystal-us-color.png"
         inkscape:export-xdpi="360"
         inkscape:export-ydpi="360" />
      <ellipse
         style="color:#000000;clip-rule:nonzero;display:inline;overflow:visible;visibility:visible;opacity:1;isolation:auto;mix-blend-mode:normal;color-interpolation:sRGB;color-interpolation-filters:linearRGB;solid-color:#000000;solid-opacity:1;fill:#8e83e4;fill-opacity:1;fill-rule:nonzero;stroke:#8e83e4;stroke-width:6.00000095;stroke-linecap:butt;stroke-linejoin:miter;stroke-miterlimit:4;stroke-dasharray:none;stroke-dashoffset:0;stroke-opacity:1;marker:none;marker-start:none;marker-mid:none;marker-end:none;paint-order:normal;color-rendering:auto;image-rendering:auto;shape-rendering:auto;text-rendering:auto;enable-background:accumulate"
         id="path7824-2-4-1-1-2-3-56-3-1-4-6-5-4-2-8-6-4-7-3-4-2-2-6-4-9-4-3"
         cx="-60.314339"
         cy="39.052002"
         rx="22.619995"
         ry="22.60779"
         inkscape:export-filename="./devconf-crystal-us-color.png"
         inkscape:export-xdpi="360"
         inkscape:export-ydpi="360" />
      <path
         inkscape:connector-curvature="0"
         style="color:#000000;clip-rule:nonzero;display:inline;overflow:visible;visibility:visible;opacity:1;isolation:auto;mix-blend-mode:normal;color-interpolation:sRGB;color-interpolation-filters:linearRGB;solid-color:#000000;solid-opacity:1;fill:#ffffff;fill-opacity:1;fill-rule:nonzero;stroke:#8e83e4;stroke-width:0.5;stroke-linecap:butt;stroke-linejoin:miter;stroke-miterlimit:4;stroke-dasharray:none;stroke-dashoffset:0;stroke-opacity:1;marker:none;marker-start:none;marker-mid:none;marker-end:none;paint-order:normal;color-rendering:auto;image-rendering:auto;shape-rendering:auto;text-rendering:auto;enable-background:accumulate"
         d="M 314.4707,63.867188 A 22.61999,22.607786 0 0 0 292.625,80.71875 l 7.0293,1.882812 a 21.568194,21.556558 0 0 1 19.69531,-12.80664 21.568194,21.556558 0 0 1 15.18945,6.269531 22.61999,22.607786 0 0 0 -20.06836,-12.197265 z m -22.48828,20.232421 a 22.61999,22.607786 0 0 0 -0.13281,2.375 22.61999,22.607786 0 0 0 0.81055,5.984375 l 5.29492,1.417969 a 21.568194,21.556558 0 0 1 -0.17578,-2.525391 21.568194,21.556558 0 0 1 0.74414,-5.5 l -6.54102,-1.751953 z"
         transform="translate(-374.78601,-47.423442)"
         id="path9442-6" />
      <path
         inkscape:connector-curvature="0"
         id="path8251-8-5-8-1-8-1-2-0-9-9-0"
         style="font-style:normal;font-variant:normal;font-weight:bold;font-stretch:normal;font-size:medium;line-height:125%;font-family:Montserrat;-inkscape-font-specification:'Montserrat Bold';text-align:end;letter-spacing:-10.00000095px;word-spacing:0px;text-anchor:end;fill:#333333;fill-opacity:1;stroke:none;stroke-width:1px;stroke-linecap:butt;stroke-linejoin:miter;stroke-opacity:1"
         d="m -310.99318,2.9191211 c 12.962,0 22.91,3.1886 29.841,9.5656999 6.932,6.3079 10.398,15.1112 10.398,26.4099 0,11.2987 -3.397,20.240603 -10.19,26.825703 -6.724,6.5851 -17.017,9.8777 -30.881,9.8777 l -20.85,0 0,-72.6790029 z m 0.832,58.3303029 c 7.417,0 13.101,-1.8716 17.052,-5.6147 4.02,-3.743103 6.031,-9.184403 6.031,-16.324103 0,-7.1397 -2.011,-12.6157 -6.031,-16.4282 -3.951,-3.8817 -10.051,-5.8226 -18.3,-5.8226 l -5.045,0 0,44.189603 z"
         sodipodi:nodetypes="scscsccsscscsccs"
         inkscape:export-filename="./devconf-crystal-us-color.png"
         inkscape:export-xdpi="360"
         inkscape:export-ydpi="360" />
      <path
         inkscape:connector-curvature="0"
         d="m 38.258821,2.9193211 12.269,0 0,72.6788029 -13.308,0 -41.1750005,-53.027403 0,53.027403 -12.2689995,0 0,-72.6788029 12.2689995,0 42.2140005,54.2752029 0,-54.2752029 z"
         id="path7649-0-2-3-5-3-2-6-20-2-4-1-4-2-9-0-9-7-1-6-6"
         style="font-style:normal;font-variant:normal;font-weight:normal;font-stretch:normal;font-size:medium;line-height:125%;font-family:Montserrat;-inkscape-font-specification:Montserrat;text-align:center;letter-spacing:0px;word-spacing:0px;text-anchor:middle;fill:#333333;fill-opacity:1;stroke:none;stroke-width:1px;stroke-linecap:butt;stroke-linejoin:miter;stroke-opacity:1"
         inkscape:export-filename="./devconf-crystal-us-color.png"
         inkscape:export-xdpi="360"
         inkscape:export-ydpi="360" />
      <path
         inkscape:connector-curvature="0"
         id="path7646-8-93-0-9-2-70-1-6-0-2-2-33-8-7-6-3-8-7-1-2"
         d="m 59.295821,2.9202211 0,72.6779029 12.27,0 0,-29.945303 24.769,0 4.556999,-11.3322 -29.325999,0 0,-19.9648 37.350999,0 4.598,-11.4355999 -54.218999,0 z"
         style="font-style:normal;font-variant:normal;font-weight:normal;font-stretch:normal;font-size:medium;line-height:125%;font-family:Montserrat;-inkscape-font-specification:Montserrat;text-align:center;letter-spacing:0px;word-spacing:0px;text-anchor:middle;fill:#333333;fill-opacity:1;stroke:none;stroke-width:1px;stroke-linecap:butt;stroke-linejoin:miter;stroke-opacity:1"
         inkscape:export-filename="./devconf-crystal-us-color.png"
         inkscape:export-xdpi="360"
         inkscape:export-ydpi="360" />
      <path
         inkscape:connector-curvature="0"
         style="font-style:normal;font-variant:normal;font-weight:normal;font-stretch:normal;font-size:medium;line-height:125%;font-family:Montserrat;-inkscape-font-specification:Montserrat;text-align:start;letter-spacing:0px;word-spacing:0px;text-anchor:start;fill:#333333;fill-opacity:1;stroke:none;stroke-width:1px;stroke-linecap:butt;stroke-linejoin:miter;stroke-opacity:1"
         d="m 507.89453,81.507812 c -12.22366,0 -21.73047,9.033906 -21.73047,20.785158 0,11.86935 9.39054,21.02344 21.4961,21.02344 5.8461,0 11.80929,-2.65741 16.00195,-6.79102 l -4.13281,-4.60742 c -3.12973,3.01163 -7.38203,4.90234 -11.51563,4.90234 -8.26721,0 -14.76367,-6.43683 -14.76367,-14.58593 0,-8.149113 6.49646,-14.527349 14.76367,-14.527349 4.19265,0 8.504,2.008027 11.51563,5.25586 l 4.07422,-5.078125 c -4.01551,-3.956451 -9.86289,-6.376953 -15.70899,-6.376954 z m 20.38867,0.175782 0,6.259765 24.44727,0 -25.21485,30.058591 0,5.01758 34.9004,0 0,-6.25781 -25.45118,0 25.15625,-30.058595 0,-5.019531 -33.83789,0 z m -50.60742,34.074216 c -2.12585,0 -3.7207,1.59394 -3.7207,3.83789 0,2.30301 1.59485,3.95703 3.7207,3.95703 2.12586,0 3.7207,-1.65402 3.7207,-3.95703 0,-2.24395 -1.59484,-3.83789 -3.7207,-3.83789 z"
         transform="translate(-374.78601,-47.423442)"
         id="path7182-6" />
      <path
         inkscape:connector-curvature="0"
         style="color:#000000;font-style:normal;font-variant:normal;font-weight:normal;font-stretch:normal;font-size:medium;line-height:normal;font-family:sans-serif;text-indent:0;text-align:start;text-decoration:none;text-decoration-line:none;text-decoration-style:solid;text-decoration-color:#000000;letter-spacing:normal;word-spacing:normal;text-transform:none;direction:ltr;block-progression:tb;writing-mode:lr-tb;baseline-shift:baseline;text-anchor:start;white-space:normal;clip-rule:nonzero;display:inline;overflow:visible;visibility:visible;opacity:1;isolation:auto;mix-blend-mode:normal;color-interpolation:sRGB;color-interpolation-filters:linearRGB;solid-color:#000000;solid-opacity:1;fill:#333333;fill-opacity:1;fill-rule:nonzero;stroke:none;stroke-width:11.33300209;stroke-linecap:butt;stroke-linejoin:miter;stroke-miterlimit:4;stroke-dasharray:none;stroke-dashoffset:0;stroke-opacity:1;marker:none;paint-order:normal;color-rendering:auto;image-rendering:auto;shape-rendering:auto;text-rendering:auto;enable-background:accumulate"
         d="m -121.64539,1.150777 c -20.72186,-0.0025 -37.64257,16.91876 -37.64257,37.640625 0,20.721866 16.92072,37.660496 37.64257,37.642576 0.34421,-3e-4 0.68131,-9e-5 1,0 9.17779,0.002 17.6057,-3.32366 24.15235,-8.82226 -2.52122,-3.18176 -4.63874,-6.69498 -6.25977,-10.47071 -4.66451,4.79913 -11.15733,7.81201 -18.39258,7.94532 -14.36254,-0.265 -25.80859,-11.86566 -25.80859,-26.294926 0,-14.429279 11.44605,-26.031898 25.80859,-26.296875 7.32028,0.134859 13.87904,3.218777 18.55469,8.117187 1.6534,-3.762447 3.79397,-7.263423 6.34375,-10.425781 -6.58111,-5.623926 -15.10406,-9.052475 -24.39844,-9.035156 -0.34427,6.42e-4 -0.68107,3.8e-5 -1,0 z"
         id="path9486-1" />
    </g>
  </g>
  <g
     sodipodi:insensitive="true"
     inkscape:label="pattern"
     id="layer3"
     inkscape:groupmode="layer">
    <path
       inkscape:connector-curvature="0"
       style="opacity:0.1;fill:none;stroke:url(#radialGradient10504);stroke-width:2;stroke-linecap:butt;stroke-linejoin:miter;stroke-miterlimit:4;stroke-dasharray:2, 2;stroke-dashoffset:0"
       d="m 1837.893,390.38911 c 0,-59.5341 -12.147,-119.04418 -35.5261,-173.93037 -23.3791,-54.88619 -57.972,-105.1041 -101.1728,-146.754162 -43.2009,-41.650059 -94.9757,-74.6982948 -151.4251,-96.539104 -56.4493,-21.840818 -117.5288,-32.455823 -178.6382,-30.93009 -61.1096,1.525732 -122.2012,15.192203 -178.6751,40.084381 -56.4738,24.8921778 -108.2854,60.991676 -151.5351,105.692803 -43.24993,44.701132 -77.90373,97.969922 -101.35623,155.906692 -23.45251,57.93676 -35.68512,120.49712 -35.78293,183.08113 -0.0978,62.58399 11.93919,125.14358 35.19613,183.07879 23.2569,57.93519 57.7152,111.20162 100.76933,155.89962 43.0543,44.69799 94.6702,80.79358 150.9486,105.68106 56.2782,24.88746 117.1742,38.54845 178.0883,40.06792 60.914,1.51945 121.798,-9.10261 178.0518,-30.95125 56.2539,-21.84866 107.8334,-54.90552 150.8389,-96.56497 43.0056,-41.65946 77.403,-91.88755 100.5868,-146.78472 23.1837,-54.89715 35.1356,-114.41899 34.9404,-173.96562 -0.1952,-59.54664 -12.5374,-119.07003 -36.1117,-173.97031 -23.5742,-54.9003 -58.3621,-105.13308 -101.7579,-146.7988 -43.3957,-41.66572 -95.3656,-74.730393 -152.0098,-96.588429 -56.6443,-21.858038 -117.9184,-32.491041 -179.2227,-30.984092 -61.3042,1.50694 -122.5904,15.15385 -179.2588,40.025689 -56.6683,24.871831 -108.6744,60.950212 -152.1185,105.629432 -43.44423,44.67924 -78.29253,97.92533 -101.93913,155.83866 -23.64669,57.91329 -36.07342,120.44943 -36.36523,183.00842 -0.2918,62.55898 11.55132,125.09278 34.61443,183.0014 23.0631,57.90864 57.3277,111.14773 100.18843,155.81761 42.8606,44.66988 94.283,80.73656 150.3679,105.59432 56.085,24.8578 116.7879,38.48839 177.5087,39.9766 60.721,1.48829 121.4119,-9.16578 177.4731,-31.04716 56.0611,-21.88147 107.4478,-54.97185 150.2606,-96.66562 42.813,-41.69377 77.018,-91.95695 100.0095,-146.88995 22.9915,-54.93302 34.7512,-114.49147 34.3639,-174.07551 -0.3871,-59.58402 -12.9212,-119.14557 -36.6871,-174.08479 -23.766,-54.93921 -58.7453,-105.2117 -102.3325,-146.91789 -43.5872,-41.70619 -95.7482,-74.81209 -152.5835,-96.71212 -56.8352,-21.900032 -118.3004,-32.575803 -179.7953,-31.112381 -61.4949,1.463421 -122.9718,15.066031 -179.8304,39.892811 -56.8587,24.82679 -109.055,60.85935 -152.6892,105.49199 -43.63403,44.63265 -78.67213,97.83142 -102.50836,155.69664 -23.83627,57.86521 -36.45242,120.35247 -36.93344,182.86184 -0.48102,62.50938 11.1731,124.9928 34.04741,182.85029 22.87426,57.85751 56.95036,111.04472 99.62249,155.66194 42.6722,44.61724 93.9066,80.63051 149.8036,105.43419 55.8969,24.8036 116.4121,38.3792 176.9454,39.8119 60.5335,1.4325 121.0371,-9.2779 176.9111,-31.2165 55.8739,-21.9386 107.0739,-55.08688 149.7002,-96.83929 42.6263,-41.75243 76.645,-92.07501 99.4504,-147.06816 22.8054,-54.99316 34.3791,-114.61251 33.8061,-174.25817 -0.5727,-59.64567 -13.2922,-119.26961 -37.2432,-174.27195 -23.951,-55.00235 -59.1153,-105.33869 -102.8872,-147.10948 -43.7718,-41.77079 -96.1173,-74.94204 -153.1366,-96.90816 -57.0194,-21.96611 -118.6683,-32.7087 -180.3468,-31.31283 -61.6785,1.39585 -123.3387,14.93018 -180.3803,39.68794 -57.0418,24.75776 -109.4208,60.72055 -153.23743,105.28271 -43.8165,44.56216 -79.03674,97.68971 -103.05491,155.48296 -24.01819,57.79328 -36.81593,120.20787 -37.47827,182.64382 -0.66231,62.43597 10.81077,124.84526 33.50433,182.6279 22.69356,57.78264 56.58915,110.89432 99.08125,155.4352 42.49213,44.54101 93.54673,80.47721 149.26413,105.20311 55.7175,24.7259 116.0534,38.223 176.408,39.5765 60.3545,1.3534 120.6796,-9.437 176.3754,-31.4561 55.6958,-22.0192 106.7178,-55.2489 149.1664,-97.08335 42.4488,-41.83447 76.2902,-92.23975 98.9187,-147.31637 22.6285,-55.07661 34.0257,-114.78012 33.2765,-174.51066 -0.7491,-59.73055 -13.6444,-119.44005 -37.771,-174.52867 -24.1267,-55.08863 -59.466,-105.51197 -103.4128,-147.37044 -43.9467,-41.85846 -96.4666,-75.11811 -153.6601,-97.17332 -57.1935,-22.05518 -119.0162,-32.88755 -180.8682,-31.58218 -61.8519,1.3054 -123.6851,14.74856 -180.8994,39.41444 -57.2145,24.6659 -109.76583,60.53615 -153.75433,105.00506 -43.9886,44.46892 -79.38036,97.50253 -103.56974,155.20117 -24.18939,57.69864 -37.15796,120.01793 -37.99072,182.35789 -0.83277,62.33998 10.47027,124.6526 32.99416,182.3379 22.52389,57.68533 56.25026,110.69887 98.5734,155.14103 42.3233,44.4423 93.20943,80.2791 148.75883,104.905 55.5493,24.6259 115.7177,38.0223 175.9049,39.2743 60.1873,1.252 120.3455,-9.6404 175.8747,-31.7623 55.5294,-22.122 106.3853,-55.455 148.6685,-97.3935 42.283,-41.9386 75.9592,-92.44862 98.423,-147.6306 22.4636,-55.18201 33.6964,-114.99158 32.7833,-174.82883 -0.9129,-59.83725 -13.9717,-119.65414 -38.2614,-174.85078 -24.2898,-55.19663 -59.7919,-105.72864 -103.9009,-147.69645 -44.1088,-41.9678 -96.7905,-75.33741 -154.1453,-97.50324 -57.3548,-22.16581 -119.3384,-33.10945 -181.3508,-31.91598 -62.0124,1.19348 -124.0055,14.52408 -181.3794,39.07678 -57.374,24.55271 -110.08443,60.30911 -154.23156,104.66356 -44.14719,44.35445 -79.69713,97.27296 -104.04421,154.85586 -24.34707,57.58291 -37.47288,119.78585 -38.4624,182.00882 -0.98953,62.22297 10.15722,124.41797 32.52529,181.98505 22.36806,57.56701 55.93908,110.46171 98.10743,154.78451 42.16832,44.3226 92.90002,80.0395 148.29545,104.5446 55.3955,24.5051 115.4104,37.7802 175.4447,38.9102 60.0345,1.1301 120.0402,-9.8849 175.4176,-32.1301 55.3773,-22.245 106.0818,-55.7019 148.214,-97.7647 42.1321,-42.063 75.6578,-92.6981 97.9716,-148.00568 22.3137,-55.3076 33.397,-115.24338 32.335,-175.20744 -1.0619,-59.96404 -14.2691,-119.90832 -38.7068,-175.23294 -24.4376,-55.32464 -60.0871,-105.98523 -104.343,-148.08221 -44.2558,-42.09697 -97.0838,-75.59634 -154.5844,-97.89249 -57.5008,-22.29616 -119.6298,-33.37073 -181.7869,-32.30877 -62.1572,1.06197 -124.2946,14.26048 -181.8122,38.68053 -57.51783,24.42003 -110.37142,60.0432 -154.66125,104.26384 -44.28983,44.22062 -79.98193,97.00475 -104.47059,154.45271 -24.48868,57.44797 -37.75554,119.51537 -38.88559,181.60226 -1.13004,62.0869 9.87673,124.14523 32.10538,181.57506 22.22866,57.42983 55.66081,110.18683 97.69083,154.37123 42.03002,44.1844 92.62389,79.7623 147.88219,104.128 55.25833,24.3657 115.13653,37.5008 175.03483,38.4904 59.8983,0.9895 119.7685,-10.1666 175.011,-32.5532 55.2424,-22.3868 105.8124,-55.9858 147.8107,-98.1913 41.9984,-42.2056 75.3909,-92.9839 97.5719,-148.4353 22.1812,-55.45136 33.1324,-115.53137 31.9388,-175.64023 -1.1934,-60.10883 -14.5316,-120.19846 -39.0996,-175.66894 -24.5678,-55.47048 -60.3471,-106.27745 -104.7321,-148.52133 -44.3849,-42.24385 -97.3416,-75.89063 -154.9703,-98.33472 -57.6287,-22.44409 -119.8849,-33.66709 -182.1689,-32.75406 -62.2841,0.91301 -124.5476,13.96207 -182.19103,38.23216 -57.64332,24.27007 -110.6219,59.74278 -155.03613,103.81247 -44.41424,44.06967 -80.23011,96.70234 -104.84197,153.99835 -24.61185,57.296 -38.00129,119.21097 -39.25329,181.14493 -1.25201,61.93396 9.63342,123.83889 31.74134,181.11477 22.10792,57.276 55.41995,109.8786 97.33049,153.9081 41.91053,44.0296 92.38559,79.4521 147.52556,103.662 55.1401,24.2098 114.90073,37.1886 174.68193,38.0215 59.7812,0.8327 119.5352,-10.4806 174.6619,-33.025 55.1266,-22.5443 105.5817,-56.3015 147.4655,-98.6657 41.8838,-42.3642 75.1626,-93.3016 97.2304,-148.9125 22.0678,-55.61089 32.9066,-115.85086 31.6013,-176.12018 -1.3055,-60.26928 -14.7551,-120.51977 -39.4336,-176.15159 -24.6785,-55.6318 -60.5678,-106.60055 -105.0621,-149.00662 -44.4943,-42.40605 -97.5596,-76.21548 -155.2963,-98.82265 -57.7367,-22.60715 -120.1003,-33.99367 -182.491,-33.24458 -62.3907,0.74908 -124.76043,13.63378 -182.50915,37.73906 -57.7487,24.1053 -110.83203,59.4128 -155.35033,103.31685 -44.5183,43.90405 -80.43758,96.37067 -105.15217,153.50022 -24.71459,57.12955 -38.20611,118.87766 -39.55952,180.64434 -1.3534,61.76665 9.43129,123.50395 31.43917,180.61185 22.00786,57.1078 55.2205,109.5419 97.03233,153.4026 41.81183,43.8607 92.18886,79.1139 147.23153,103.1541 55.04271,24.0402 114.70661,36.849 174.39184,37.5113 59.6854,0.6624 119.3439,-10.8218 174.3759,-33.5374 55.0321,-22.7156 105.3933,-56.6443 147.1838,-99.1804 41.7907,-42.5362 74.9768,-93.6459 96.9528,-149.4295 21.9759,-55.7835 32.7235,-116.19666 31.3276,-176.63934 -1.3958,-60.44272 -14.9352,-120.86699 -39.7027,-176.67295 -24.7676,-55.80596 -60.7455,-106.94919 -105.3274,-149.53012 -44.5819,-42.58091 -97.7342,-76.56554 -155.5572,-99.34826 -57.823,-22.78272 -120.2722,-34.34513 -182.7479,-33.77229 -62.47553,0.57286 -124.92933,13.28097 -182.76149,37.20935 -57.83215,23.92838 -110.99823,59.05865 -155.59856,102.78511 -44.60033,43.72649 -80.60094,96.0152 -105.39614,152.96653 -24.7952,56.95133 -38.36661,118.52086 -39.7992,180.10869 -1.43259,61.58781 9.27366,123.14588 31.20377,180.07428 21.93012,56.9283 55.06573,109.1826 96.80127,152.8631 41.73552,43.6806 92.03697,78.7535 147.00478,102.613 54.96782,23.8595 114.55764,36.4873 174.16944,36.9683 59.61193,0.481 119.19773,-11.1847 174.15793,-34.0823 54.9602,-22.8975 105.25,-57.0084 146.97,-99.727 41.7201,-42.7186 74.8365,-94.011 96.7435,-149.9776 21.9071,-55.9667 32.5864,-116.56305 31.1229,-177.1893 -1.4634,-60.62632 -15.0695,-121.23445 -39.9034,-177.22451 -24.8336,-55.99006 -60.8766,-107.31766 -105.5231,-150.08322 -44.6466,-42.76555 -97.8628,-76.93508 -155.7489,-99.90294 -57.8862,-22.96785 -120.3979,-34.71566 -182.93503,-34.32845 -62.53718,0.38721 -125.05192,12.90943 -182.94422,36.65168 -57.8923,23.74225 -111.11778,58.68613 -155.77677,102.22601 -44.659,43.53986 -80.71751,95.64174 -105.56987,152.40599 -24.85234,56.76426 -38.48017,118.1465 -39.96841,179.54677 -1.48824,61.40027 9.16309,122.77067 31.03906,179.51107 21.87596,56.7403 54.95819,108.8065 96.64107,152.2986 41.68289,43.4922 91.93246,78.3764 146.84913,102.0471 54.91667,23.6707 114.45608,36.1094 174.01837,36.4013 59.56224,0.2918 119.09937,-11.5633 174.01127,-34.6505 54.912,-23.087 105.1546,-57.3877 146.8282,-100.2963 41.6734,-42.9087 74.744,-94.3912 96.606,-150.5482 21.8618,-56.157 32.4968,-116.9439 30.9899,-177.76087 -1.507,-60.81701 -15.1559,-121.616 -40.0316,-177.79711 -24.8758,-56.18112 -60.9599,-107.69993 -105.647,-150.65687 -44.6869,-42.95693 -97.9429,-77.31799 -155.8679,-100.47755 -57.92503,-23.15954 -120.47483,-35.09921 -183.04947,-34.90401 -62.57461,0.19522 -125.12596,12.52528 -183.05412,36.07524 -57.92815,23.54997 -111.18872,58.30141 -155.88201,101.64869 -44.6933,43.34731 -80.78536,95.25646 -105.67047,151.82787 -24.88513,56.57142 -38.54494,117.76067 -40.06441,178.96792 -1.51946,61.20719 9.10143,122.38429 30.94774,178.93129 21.84628,56.547 54.89963,108.4197 96.55438,151.7183 41.65476,43.2986 91.87698,77.9891 146.76709,101.4661 54.89011,23.4768 114.40372,35.7217 173.94097,35.8195 59.53724,0.098 119.05007,-11.9515 173.9386,-35.2328 54.8886,-23.2812 105.1084,-57.7762 146.7602,-100.8792 41.6515,-43.103 74.7009,-94.7801 96.5425,-151.1315 21.8416,-56.3516 32.457,-117.3331 30.9313,-178.34478 -1.5258,-61.01174 -15.1926,-122.00552 -40.0856,-178.38148 -24.893,-56.37596 -60.9936,-108.08971 -105.6964,-151.24161 -44.7025,-43.15192 -97.9734,-77.70803 -155.91253,-101.06268 -57.9391,-23.35466 -120.50222,-35.48946 -183.08935,-35.48946 -62.58714,0 -125.15024,12.1348 -183.08938,35.48946 -57.93912,23.35465 -111.20986,57.91076 -155.91256,101.06268 -44.7027,43.1519 -80.80337,94.86565 -105.69633,151.24161 -24.89297,56.37596 -38.55984,117.36974 -40.08556,178.38148 -1.52573,61.01168 9.08967,121.99318 30.93127,178.34478 21.84159,56.3514 54.891,108.0285 96.54263,151.1315 41.65163,43.103 91.8715,77.598 146.76004,100.8792 54.88854,23.2813 114.40136,35.3306 173.93861,35.2328 59.53724,-0.098 119.05085,-12.3427 173.94093,-35.8195 54.8902,-23.477 105.11233,-58.1675 146.76713,-101.4661 41.6548,-43.2986 74.7082,-95.1713 96.5544,-151.7183 21.8463,-56.547 32.4672,-117.7241 30.9478,-178.93129 -1.5194,-61.20725 -15.1793,-122.3965 -40.0644,-178.96792 C 1146.6495,723.63358 1110.5574,671.72443 1065.8641,628.37712 1021.1707,585.02984 967.91017,550.2784 909.98205,526.72843 852.05386,503.17847 789.50251,490.84841 726.9279,490.65319 c -62.57461,-0.1952 -125.1244,11.74447 -183.04942,34.90401 -57.92503,23.15956 -111.1809,57.52062 -155.86792,100.47755 -44.68704,42.95694 -80.77129,94.47575 -105.64702,150.65687 -24.87574,56.18111 -38.5246,116.9801 -40.03155,177.79711 -1.50695,60.81697 9.12802,121.60387 30.98994,177.76087 21.86196,56.157 54.93248,107.6395 96.60601,150.5482 41.67353,42.9086 91.91609,77.2093 146.82808,100.2963 54.912,23.0872 114.44907,34.9423 174.01132,34.6505 59.56225,-0.2919 119.10167,-12.7306 174.01833,-36.4013 54.9167,-23.6707 105.1663,-58.5549 146.84913,-102.0471 41.6829,-43.4921 74.7651,-95.5583 96.641,-152.2986 21.876,-56.7404 32.5275,-118.1108 31.0392,-179.51107 -1.4883,-61.40027 -15.1162,-122.78251 -39.9685,-179.54677 -24.8523,-56.76425 -60.9108,-108.86613 -105.56981,-152.40599 -44.659,-43.53988 -97.88448,-78.48376 -155.77679,-102.22601 -57.8923,-23.74225 -120.40704,-36.26447 -182.94425,-36.65168 -62.5372,-0.38721 -125.04886,11.3606 -182.93493,34.32845 -57.8861,22.96786 -111.10227,57.13739 -155.74884,99.90294 -44.64658,42.76556 -80.68958,94.09316 -105.52332,150.08322 -24.83375,55.99006 -38.43984,116.59819 -39.90326,177.22451 -1.46341,60.62625 9.21582,121.2226 31.12283,177.1893 21.90699,55.9666 55.02333,107.259 96.74343,149.9776 41.72012,42.7186 92.01001,76.8295 146.97011,99.727 54.96009,22.8976 114.54602,34.5633 174.15789,34.0823 59.61186,-0.481 119.20165,-13.1088 174.16946,-36.9683 54.96781,-23.8595 105.26927,-58.9324 147.00477,-102.613 41.7355,-43.6805 74.87111,-95.9348 96.80121,-152.8631 21.9302,-56.9284 32.6364,-118.48647 31.2039,-180.07428 -1.4326,-61.58783 -15.004,-123.15736 -39.7992,-180.10869 C 1004.5245,689.5927 968.52377,637.30399 923.92347,593.5775 879.32315,549.85104 826.15708,514.72077 768.32492,490.79239 710.49276,466.86401 648.03893,454.1559 585.56334,453.58304 c -62.47556,-0.57284 -124.92481,10.98957 -182.74779,33.77229 -57.82298,22.78272 -110.97528,56.76735 -155.55724,99.34826 -44.58198,42.58093 -80.55963,93.72416 -105.32729,149.53012 -24.76765,55.80596 -38.30693,116.23023 -39.7028,176.67295 -1.39587,60.44268 9.35167,120.85584 31.3277,176.63934 21.97602,55.7836 55.16212,106.8933 96.95272,149.4295 41.7906,42.5361 92.15172,76.4648 147.18376,99.1804 55.03205,22.7156 114.69065,34.1998 174.37594,33.5374 59.68526,-0.6623 119.34917,-13.4711 174.39184,-37.5113 55.04268,-24.0402 105.4197,-59.2934 147.23153,-103.1541 41.81185,-43.8607 75.02446,-96.2948 97.03237,-153.4026 22.0079,-57.1079 32.79252,-118.8452 31.43912,-180.61185 C 1000.8098,835.24677 987.31827,773.49866 962.60367,716.36911 937.88907,659.23956 901.96981,606.77294 857.45151,562.86889 812.93321,518.96484 759.84988,483.65734 702.10119,459.55204 644.3525,435.44676 581.9828,422.56206 519.59211,421.81298 c -62.39071,-0.74909 -124.75438,10.63743 -182.49107,33.24458 -57.73669,22.60717 -110.80201,56.4166 -155.2963,98.82265 -44.49427,42.40607 -80.38355,93.37482 -105.06212,149.00662 -24.67857,55.63182 -38.12806,115.88231 -39.43346,176.15159 -1.30539,60.26932 9.53333,120.50929 31.60122,176.12018 22.06788,55.6109 55.34653,106.5483 97.23037,148.9125 41.88385,42.3642 92.33888,76.1214 147.46556,98.6657 55.12666,22.5444 114.88057,33.8577 174.66184,33.025 59.78126,-0.8329 119.54184,-13.8117 174.68186,-38.0215 55.14002,-24.2099 105.61509,-59.6324 147.52561,-103.662 41.91054,-44.0295 75.22257,-96.6321 97.33048,-153.9081 22.10797,-57.27588 32.99337,-119.18081 31.74137,-181.11477 C 938.29547,797.12147 924.90607,735.2065 900.29415,677.9105 875.6823,620.61449 839.86642,567.98182 795.4522,523.91215 751.03797,479.84246 698.05939,444.36975 640.41608,420.09968 582.77277,395.82959 520.50915,382.78053 458.22516,381.86752 c -62.28399,-0.91303 -124.5403,10.30997 -182.16897,32.75406 -57.62868,22.44409 -110.58532,56.09087 -154.97027,98.33472 -44.38496,42.24388 -80.16424,93.05085 -104.732206,148.52133 -24.567947,55.47048 -37.906172,115.56011 -39.099661,175.66894 -1.193475,60.10886 9.7578,120.18887 31.93887,175.64023 22.181087,55.4514 55.573577,106.2297 97.571877,148.4353 41.99831,42.2055 92.56845,75.8045 147.81085,98.1913 55.24241,22.3866 115.11268,33.5427 175.01094,32.5532 59.89827,-0.9896 119.77646,-14.1247 175.03473,-38.4904 55.25827,-24.3657 105.85221,-59.9436 147.88222,-104.128 42.03004,-44.1844 75.46218,-96.9414 97.69084,-154.37123 C 872.42303,937.54714 883.4298,875.48881 882.29976,813.40191 881.16972,751.31502 867.90285,689.24762 843.41417,631.79965 818.9255,574.35169 783.23341,521.56756 738.94359,477.34694 694.65376,433.1263 641.80016,397.50313 584.28244,373.0831 526.76475,348.66305 464.62733,335.46454 402.47014,334.40257 c -62.15719,-1.06196 -124.2861,10.01261 -181.78679,32.30877 -57.50067,22.29615 -110.32874,55.79552 -154.58453,97.89249 -44.25578,42.09698 -79.905316,92.75757 -104.342934,148.08221 -24.437606,55.32462 -37.6449,115.2689 -38.70688,175.23294 -1.06197,59.96406 10.021392,119.89984 32.335133,175.20744 22.313746,55.30758 55.839468,105.94268 97.971601,148.00568 42.13211,42.0628 92.83664,75.5197 148.214,97.7647 55.37735,22.2452 115.38313,33.2602 175.41747,32.1301 60.03435,-1.13 120.0492,-14.4051 175.44466,-38.9102 55.39547,-24.5051 106.12717,-60.222 148.29551,-104.5446 42.16836,-44.3228 75.73937,-97.2175 98.10744,-154.78451 22.36807,-57.56708 33.51481,-119.76208 32.52529,-181.98505 C 830.37058,698.57957 817.24477,636.37663 792.8977,578.79372 768.55063,521.21082 733.00068,468.29231 688.85352,423.93786 644.70637,379.58341 591.99599,343.82701 534.62204,319.2743 477.24808,294.7216 415.25494,281.391 353.24256,280.19752 c -62.0124,-1.19347 -123.99599,9.75017 -181.3508,31.91598 -57.35483,22.16583 -110.03651,55.53544 -154.145406,97.50324 -44.108897,41.96781 -79.611025,92.49982 -103.90071,147.69645 -24.289694,55.19664 -37.348554,115.01353 -38.261574,174.85078 -0.91303,59.83725 10.31979,119.64682 32.783489,174.82883 22.463695,55.18198 56.139886,105.692 98.422972,147.6306 42.283069,41.9385 93.139059,75.2715 148.668359,97.3935 55.52929,22.1219 115.68753,33.0143 175.87481,31.7623 60.18727,-1.252 120.35555,-14.6484 175.90492,-39.2743 55.54937,-24.6259 106.43546,-60.4627 148.75868,-104.905 42.3232,-44.44216 76.04957,-97.4557 98.57346,-155.14103 22.5239,-57.6853 33.82693,-119.99792 32.99416,-182.3379 C 786.73217,639.78101 773.76359,577.46172 749.5742,519.76308 725.38483,462.06444 689.99304,409.03083 646.0045,364.56191 602.01598,320.093 549.46468,284.22275 492.25025,259.55685 435.03582,234.89097 373.20265,221.44781 311.35071,220.14241 c -61.85196,-1.30537 -123.67466,9.527 -180.86817,31.58218 -57.19349,22.05521 -109.71341,55.31486 -153.660093,97.17332 -43.946681,41.85847 -79.286167,92.28181 -103.412787,147.37044 -24.12662,55.08862 -37.02197,114.79812 -37.77105,174.52867 -0.7491,59.73054 10.64808,119.43405 33.27657,174.51066 22.62848,55.07662 56.469893,105.48199 98.918593,147.31637 42.448703,41.83445 93.470737,75.06415 149.166487,97.08335 55.69576,22.0191 116.02086,32.8095 176.37541,31.4561 60.35455,-1.3535 120.6905,-14.8506 176.40796,-39.5765 55.71744,-24.7259 106.77202,-60.6621 149.26411,-105.20311 42.49208,-44.54088 76.38772,-97.65256 99.08127,-155.4352 22.69356,-57.78264 34.16665,-120.19193 33.50433,-182.6279 C 750.971,575.88484 738.17326,513.47025 714.15507,455.67697 690.1369,397.88372 654.91669,344.75617 611.10012,300.19401 567.28353,255.63185 514.90456,219.66906 457.86282,194.9113 400.82109,170.15354 339.161,156.61921 277.48246,155.22336 c -61.67853,-1.39587 -123.32743,9.34672 -180.34677,31.31283 -57.01937,21.96612 -109.364778,55.13737 -153.136618,96.90816 -43.771826,41.77079 -78.936112,92.10713 -102.887182,147.10948 -23.95105,55.00234 -36.67051,114.62628 -37.24337,174.27195 -0.57284,59.64566 11.0009,119.26501 33.8063,174.25817 22.8054,54.99315 56.82405,105.31573 99.450339,147.06816 42.626284,41.75241 93.826211,74.90079 149.700191,96.83929 55.87398,21.9386 116.37764,32.649 176.91105,31.2165 60.53342,-1.4327 121.04855,-15.0083 176.94549,-39.8119 55.89695,-24.80368 107.13134,-60.81695 149.80354,-105.43419 42.6722,-44.61722 76.74824,-97.80443 99.62252,-155.66194 22.87428,-57.85749 34.52839,-120.34091 34.04737,-182.85029 C 723.67431,507.94021 711.05816,445.45295 687.22188,387.58774 663.3856,329.72252 628.34758,276.52375 584.71346,231.8911 541.07935,187.25846 488.88311,151.2259 432.02441,126.39911 375.1657,101.57233 313.68891,87.96972 252.19396,86.506299 190.699,85.042877 129.23393,95.718648 72.39869,117.61868 15.563438,139.51871 -36.597594,172.62461 -80.184801,214.3308 -123.772,256.03699 -158.75141,306.30948 -182.51731,361.24869 c -23.76592,54.93922 -36.29998,114.50077 -36.68719,174.08479 -0.38721,59.58404 11.37244,119.14249 34.36396,174.07551 22.99153,54.933 57.19655,105.19618 100.009449,146.88995 42.812877,41.69377 94.199654,74.78415 150.260731,96.66562 56.06105,21.88138 116.75198,32.53545 177.47293,31.04716 60.72093,-1.48821 121.4238,-15.1188 177.50872,-39.9766 56.08492,-24.85776 107.50748,-60.92444 150.36807,-105.59432 42.86059,-44.66988 77.12525,-97.90897 100.18832,-155.81761 23.06309,-57.90862 34.90621,-120.44242 34.61441,-183.0014 C 705.29029,437.0628 692.86354,374.52666 669.21686,316.61337 645.57019,258.70004 610.72197,205.45395 567.27782,160.77471 523.83369,116.09549 471.82764,80.017109 415.15929,55.145278 358.49093,30.273439 297.20466,16.626529 235.90041,15.119589 174.59615,13.61264 113.32197,24.245643 56.67778,46.103681 0.033562,67.961717 -51.936257,101.02639 -95.332087,142.69211 c -43.395823,41.66572 -78.183683,91.8985 -101.757903,146.7988 -23.57422,54.90028 -35.91643,114.42367 -36.11164,173.97031 -0.19519,59.54663 11.75659,119.06847 34.94041,173.96562 23.18383,54.89717 57.58128,105.12526 100.586758,146.78472 43.005466,41.65945 94.584947,74.71631 150.838852,96.56497 56.2539,21.84864 117.13782,32.4707 178.05187,30.95125 60.91403,-1.51947 121.81014,-15.18046 178.08839,-40.06792 56.27827,-24.88748 107.89428,-60.98307 150.94845,-105.68106 43.05418,-44.698 77.51251,-97.96443 100.7694,-155.89962 23.25688,-57.93521 35.2939,-120.4948 35.1961,-183.07879 C 696.12082,364.41638 683.88817,301.85602 660.43567,243.91926 636.98319,185.98249 602.32926,132.7137 559.0795,88.012568 515.82976,43.311441 464.01815,7.2119428 407.54435,-17.680235 351.07053,-42.572413 289.9789,-56.238884 228.86935,-57.764616 c -61.10954,-1.525733 -122.18894,9.089272 -178.6383,30.93009 -56.44935,21.8408092 -108.224265,54.889045 -151.4251,96.539104 -43.20086,41.650062 -77.79367,91.867972 -101.17279,146.754162 -23.37912,54.88619 -35.52616,114.39627 -35.52616,173.93037 0,59.5341 12.14704,119.04418 35.52616,173.93037 23.37912,54.88619 57.97193,105.1041 101.17279,146.75415 43.200835,41.65008 94.97575,74.6983 151.4251,96.53912 56.44936,21.84081 117.52876,32.45582 178.6383,30.93009 61.10955,-1.52573 122.20118,-15.19221 178.675,-40.08438 56.4738,-24.89217 108.28541,-60.99167 151.53515,-105.69281 43.24976,-44.70112 77.90369,-97.96992 101.35617,-155.90669 23.4525,-57.93675 35.68511,-120.49712 35.78293,-183.08113 C 696.3164,291.19384 684.27937,228.63425 661.02249,170.69904 637.76561,112.76384 603.30728,59.497414 560.2531,14.799417 517.19893,-29.898573 465.58292,-65.994157 409.30465,-90.881626 353.0264,-115.7691 292.13029,-129.43009 231.21626,-130.94955 170.30221,-132.46901 109.41829,-121.84695 53.16439,-99.998305 -3.089515,-78.14965 -54.668996,-45.0928 -97.674462,-3.4333409 -140.67994,38.226118 -175.0774,88.454215 -198.26122,143.35138 c -23.18382,54.89715 -35.1356,114.41899 -34.94041,173.96562 0.19521,59.54664 12.53742,119.07003 36.11164,173.97031 23.57422,54.9003 58.36208,105.13309 101.757903,146.7988 43.39583,41.66572 95.365649,74.73039 152.009867,96.58843 56.64419,21.85804 117.91837,32.49104 179.22263,30.98409 61.30425,-1.50695 122.59052,-15.15385 179.25888,-40.02568 56.66835,-24.87183 108.6744,-60.95021 152.11853,-105.62944 43.44415,-44.67924 78.29237,-97.92533 101.93904,-155.83866 23.64668,-57.91329 36.07343,-120.44943 36.36523,-183.00842 0.2918,-62.55898 -11.55132,-125.09278 -34.61441,-183.001408 -23.06307,-57.908635 -57.32773,-111.147724 -100.18832,-155.8176 -42.86059,-44.669872 -94.28315,-80.736552 -150.36807,-105.594352 -56.08492,-24.85781 -116.78779,-38.48835 -177.50872,-39.97659 -60.72095,-1.48825 -121.41188,9.1658 -177.47293,31.04722 -56.061077,21.88141 -107.447854,54.97181 -150.260731,96.665578 -42.812899,41.693776 -77.017919,91.956949 -100.009449,146.889961 -22.99152,54.933011 -34.75117,114.491461 -34.36396,174.075501 0.38721,59.58402 12.92127,119.14557 36.68719,174.08479 23.7659,54.93921 58.74531,105.2117 102.332509,146.91789 43.587207,41.70618 95.748239,74.81209 152.583491,96.71212 56.83524,21.90003 118.30031,32.5758 179.79527,31.11238 61.49495,-1.46342 122.97174,-15.06604 179.83045,-39.89282 56.8587,-24.82678 109.05494,-60.85934 152.68906,-105.49198 43.63412,-44.63265 78.67214,-97.83142 102.50842,-155.69663 23.83627,-57.86522 36.45243,-120.35248 36.93344,-182.86185 0.48101,-62.50938 -11.1731,-124.992791 -34.04738,-182.850294 -22.87428,-57.857504 -56.95032,-111.044703 -99.62252,-155.661936 -42.6722,-44.61723 -93.90659,-80.63052 -149.80354,-105.43416 -55.89694,-24.80367 -116.41207,-38.3793 -176.94549,-39.81188 -60.53341,-1.43259 -121.03707,9.27787 -176.91105,31.21645 -55.87398,21.93856 -107.073907,55.08687 -149.700191,96.83929 -42.626289,41.75243 -76.644939,92.075007 -99.450339,147.0681572 -22.8054,54.9931598 -34.37914,114.6125128 -33.8063,174.2581728 0.57286,59.64567 13.29232,119.26961 37.24337,174.27195 23.95107,55.00235 59.115356,105.33869 102.887182,147.10948 43.77184,41.77079 96.117248,74.94205 153.136618,96.90816 57.01934,21.96611 118.66824,32.7087 180.34677,31.31283 61.67854,-1.39585 123.33863,-14.93017 180.38036,-39.68794 57.04174,-24.75776 109.42071,-60.72055 153.2373,-105.28271 43.81657,-44.56216 79.03678,-97.68971 103.05495,-155.48296 24.01819,-57.79328 36.81593,-120.20786 37.47827,-182.64382 0.66232,-62.435972 -10.81077,-124.845258 -33.50433,-182.6279 -22.69355,-57.782652 -56.58919,-110.89427 -99.08127,-155.43519 -42.49209,-44.54094 -93.54667,-80.47719 -149.26411,-105.20311 -55.71746,-24.72592 -116.05341,-38.22308 -176.40796,-39.5765 -60.35455,-1.35339 -120.67965,9.43696 -176.37541,31.45614 -55.69575,22.01919 -106.717784,55.2488 -149.166487,97.08326 -42.4487,41.83446 -76.290113,92.23979 -98.918593,147.316403 -22.62849,55.0766171 -34.02567,114.780131 -33.27657,174.510667 0.74908,59.73055 13.64443,119.44005 37.77105,174.52868 24.12662,55.08862 59.466106,105.51196 103.412787,147.37043 43.946683,41.85847 96.466603,75.11811 153.660093,97.17332 57.19351,22.05518 119.01621,32.88755 180.86817,31.58218 61.85194,-1.3054 123.68511,-14.74856 180.89954,-39.41444 57.21443,-24.6659 109.76573,-60.53615 153.75425,-105.00506 43.98854,-44.46891 79.38033,-97.50253 103.5697,-155.20117 24.18939,-57.69863 37.15797,-120.01793 37.99072,-182.357901 0.83277,-62.33997 -10.47026,-124.652587 -32.99416,-182.337879 -22.52389,-57.68531 -56.25026,-110.69889 -98.57346,-155.1411 -42.32322,-44.44224 -93.2093,-80.2791 -148.75868,-104.90497 -55.54937,-24.62584 -115.71765,-38.02228 -175.90492,-39.27428 -60.18728,-1.25202 -120.34552,9.64042 -175.87481,31.76234 -55.5293,22.12191 -106.38529,55.45494 -148.668359,97.39348 -42.283086,41.93852 -75.959277,92.44859 -98.422972,147.63059 -22.463699,55.182015 -33.696519,114.991579 -32.783489,174.828832 0.91302,59.837248 13.97188,119.654128 38.261574,174.850778 24.289685,55.19663 59.791813,105.72865 103.90071,147.69645 44.108896,41.9678 96.790566,75.33741 154.145406,97.50324 57.35481,22.16581 119.3384,33.10945 181.3508,31.91598 62.01238,-1.19348 124.00552,-14.52408 181.37948,-39.07678 57.37395,-24.55271 110.08433,-60.30911 154.23148,-104.66356 44.14716,-44.35445 79.69711,-97.27296 104.04418,-154.85587 24.34707,-57.5829 37.47288,-119.785824 38.4624,-182.0088 0.98953,-62.222983 -10.15721,-124.41798 -32.52529,-181.98503 -22.36806,-57.56704 -55.93908,-110.46176 -98.10743,-154.78448 -42.16834,-44.32272 -92.90004,-80.03949 -148.29551,-104.54461 -55.39546,-24.50512 -115.41031,-37.78022 -175.44466,-38.91026 -60.03434,-1.13005 -120.04012,9.88494 -175.41747,32.13005 -55.37736,22.2451 -106.08189,55.70193 -148.214,97.76485 -42.132133,42.06293 -75.657855,92.69798 -97.971601,148.00559 -22.313741,55.30761 -33.397103,115.243381 -32.335133,175.2074291 1.06198,59.9640479 14.269274,119.9083309 38.70688,175.2329509 24.437618,55.32464 60.087154,105.98524 104.342934,148.08221 44.25579,42.09697 97.08386,75.59634 154.58453,97.89249 57.50069,22.29616 119.6296,33.37073 181.78679,32.30877 62.15719,-1.06197 124.29461,-14.26048 181.8123,-38.68053 57.51772,-24.42003 110.37132,-60.0432 154.66115,-104.26384 44.28982,-44.22062 79.98191,-97.00475 104.47058,-154.45271 24.48869,-57.447959 37.75555,-119.515359 38.88559,-181.602261 1.13004,-62.086894 -9.87673,-124.145239 -32.10538,-181.575079 -22.22866,-57.42985 -55.6608,-110.18681 -97.69084,-154.37123 -42.03,-44.1844 -92.62395,-79.76229 -147.88221,-104.12799 -55.25828,-24.36571 -115.13646,-37.50083 -175.03473,-38.49036 -59.89826,-0.98952 -119.76853,10.16654 -175.01094,32.55323 -55.2424,22.38672 -105.81254,55.98566 -147.81085,98.19128 -41.99831,42.2056 -75.3908,92.98387 -97.571887,148.43523 -22.18107,55.45135 -33.132345,115.5314 -31.93887,175.640255 1.193489,60.1088485 14.531714,120.198462 39.099661,175.668945 24.567966,55.47049 60.347246,106.27745 104.732216,148.52133 44.38495,42.24385 97.34159,75.89063 154.97027,98.33472 57.62867,22.44409 119.88498,33.6671 182.16897,32.75406 62.28399,-0.91301 124.54761,-13.96207 182.19093,-38.23216 57.64331,-24.27007 110.62189,-59.74278 155.03612,-103.81247 44.41422,-44.06967 80.2301,-96.70234 104.84195,-153.99835 24.61192,-57.296001 38.0013,-119.210961 39.25332,-181.144925 1.25199,-61.933965 -9.63341,-123.838895 -31.74137,-181.114815 -22.10791,-57.27594 -55.41994,-109.87852 -97.33048,-153.90807 -41.91052,-44.02954 -92.38559,-79.45209 -147.52561,-103.66197 -55.14002,-24.20987 -114.9006,-37.1887 -174.68186,-38.02147 -59.78127,-0.83277 -119.53518,10.48052 -174.66184,33.02492 -55.12668,22.54441 -105.58171,56.30153 -147.46556,98.66575 -41.88384,42.36422 -75.16251,93.30158 -97.23039,148.91245 -22.06789,55.6109 -32.90661,115.85092 -31.60122,176.120211 1.3054,60.269288 14.75489,120.519775 39.43346,176.151585 24.67859,55.631814 60.56787,106.600554 105.06214,149.006624 44.49429,42.40606 97.55961,76.21548 155.2963,98.82265 57.73669,22.60716 120.10036,33.99367 182.49107,33.24458 62.39069,-0.74907 124.76039,-13.63378 182.50908,-37.73906 57.74869,-24.1053 110.83202,-59.4128 155.35032,-103.31684 44.5183,-43.90406 80.43756,-96.37068 105.15216,-153.500238 24.7146,-57.1295518 38.20611,-118.87764 39.55951,-180.644332 1.3534,-61.76669 -9.43121,-123.50395 -31.43911,-180.61179 -22.0079,-57.10786 -55.22052,-109.54196 -97.03237,-153.40262 -41.81183,-43.86067 -92.18885,-79.11395 -147.23153,-103.15416 -55.04266,-24.04021 -114.70657,-36.84899 -174.39184,-37.51133 -59.68529,-0.66232 -119.34389,10.82179 -174.37594,33.5374 -55.03204,22.7156 -105.39315,56.64428 -147.18376,99.18047 -41.7906,42.53618 -74.9767,93.64586 -96.95272,149.42944 -21.97603,55.78358 -32.72357,116.19667 -31.3277,176.63939 1.39587,60.442702 14.93515,120.866987 39.7028,176.672945 24.76766,55.805955 60.74531,106.949185 105.3273,149.530115 44.58195,42.58091 97.73426,76.56555 155.55723,99.34826 57.82299,22.78272 120.27224,34.34513 182.74779,33.77229 62.47559,-0.57286 124.92942,-13.28096 182.76158,-37.20935 57.83217,-23.92838 110.99824,-59.05865 155.59856,-102.78511 44.60029,-43.72649 80.60101,-96.015204 105.39621,-152.966527 24.7952,-56.951333 38.3666,-118.52087 39.7992,-180.108693 1.4325,-61.58784 -9.2737,-123.1459 -31.2039,-180.07425 -21.9301,-56.92837 -55.06572,-109.18265 -96.80122,-152.8632 -41.7355,-43.68055 -92.03697,-78.75341 -147.00477,-102.6129 -54.96781,-23.85951 -114.5576,-36.48727 -174.16946,-36.96829 -59.61187,-0.48101 -119.1978,11.18471 -174.15789,34.08221 -54.9601,22.8975 -105.24999,57.00837 -146.97011,99.72702 -41.7201,42.71864 -74.83644,94.01107 -96.74343,149.97768 -21.90701,55.9666 -32.58624,116.563 -31.12283,177.18929 1.46342,60.626272 15.06951,121.234401 39.90326,177.22446 24.83374,55.990066 60.87674,107.31768 105.52332,150.08323 44.64657,42.76555 97.86274,76.93508 155.74884,99.90294 57.88608,22.96785 120.39773,34.71566 182.93494,34.32845 62.53719,-0.38721 125.05193,-12.90943 182.94424,-36.65168 57.89231,-23.74224 111.11779,-58.68613 155.77679,-102.22601 44.65902,-43.53986 80.71752,-95.641738 105.56982,-152.40599 24.8523,-56.764256 38.4802,-118.1465 39.9685,-179.5468 1.4883,-61.4003 -9.1632,-122.77061 -31.0392,-179.51101 -21.8759,-56.7404 -54.9581,-108.80649 -96.641,-152.29867 -41.68282,-43.49216 -91.93242,-78.37642 -146.84912,-102.0471 -54.91668,-23.6707 -114.45608,-36.10944 -174.01833,-36.40124 -59.56225,-0.29182 -119.09932,11.56332 -174.01132,34.65042 -54.91199,23.0871 -105.15455,57.38777 -146.82808,100.2964 -41.67353,42.90863 -74.74405,94.39122 -96.60601,150.54816 -21.86192,56.15696 -32.49689,116.9439 -30.98994,177.76088 1.50695,60.81699 15.15581,121.615994 40.03155,177.7970968 24.87573,56.1811142 60.95998,107.6999432 105.64702,150.6568732 44.68702,42.95693 97.94289,77.31799 155.86792,100.47755 57.92502,23.15954 120.47481,35.09921 183.04942,34.90401 62.57461,-0.19521 125.12596,-12.52528 183.05415,-36.07524 57.92812,-23.54997 111.18864,-58.30141 155.88204,-101.64869 44.6933,-43.3473 80.7854,-95.256467 105.6705,-151.82787583 24.8851,-56.57140917 38.545,-117.76067417 40.0644,-178.96787417 1.5194,-61.2072 -9.1015,-122.38429 -30.9478,-178.93134 -21.8462,-56.54705 -54.8996,-108.41969 -96.5544,-151.71827 -41.6548,-43.2986 -91.87692,-77.98916 -146.76712,-101.46606 -54.89008,-23.47689 -114.40369,-35.72175 -173.94093,-35.81953 -59.53725,-0.0978 -119.05007,11.95141 -173.93861,35.23271 -54.88854,23.2813 -105.10841,57.77627 -146.76004,100.87927 -41.65163,43.103 -74.70104,94.78006 -96.54263,151.13158 -21.8416,56.3515 -32.457,117.33305 -30.93127,178.34474 1.52572,61.01169 15.19259,122.005471 40.08556,178.3814358 24.89296,56.3759552 60.99363,108.0897042 105.69633,151.2416142 44.7027,43.15191 97.97344,77.70802 155.91256,101.06267 57.93914,23.35466 120.50224,35.48947 183.08938,35.48947 62.58713,0 125.15025,-12.13481 183.08935,-35.48947 57.93912,-23.35465 111.21002,-57.91076 155.91252,-101.06267 44.7028,-43.15191 80.8034,-94.865659 105.6964,-151.2416142 24.893,-56.3759648 38.5598,-117.3697458 40.0856,-178.3814358 1.5257,-61.01169 -9.0897,-121.99324 -30.9313,-178.34474 -21.8416,-56.35152 -54.891,-108.02858 -96.5425,-151.13158 -41.6518,-43.103 -91.8716,-77.59797 -146.7602,-100.87927 -54.88852,-23.2813 -114.40135,-35.33053 -173.93859,-35.23271 -59.53725,0.0978 -119.05086,12.34264 -173.94097,35.81953 -54.89011,23.4769 -105.11233,58.16746 -146.76709,101.46606 -41.65475,43.29858 -74.7081,95.17122 -96.55438,151.71827 -21.84631,56.54705 -32.4672,117.72414 -30.94774,178.93134 1.51947,61.2072 15.17928,122.396465 40.06441,178.96787417 C 453.35064,57.144633 489.4427,109.0538 534.136,152.4011 c 44.69329,43.34728 97.95386,78.09872 155.88201,101.64869 57.92818,23.54996 120.47951,35.88003 183.05412,36.07524 62.57466,0.1952 125.12445,-11.74447 183.04947,-34.90401 57.925,-23.15956 111.181,-57.52062 155.8679,-100.47755 44.6871,-42.95693 80.7712,-94.475759 105.647,-150.6568732 24.8757,-56.1811028 38.5246,-116.9801068 40.0316,-177.7970968 1.5069,-60.81698 -9.1281,-121.60392 -30.9899,-177.76088 -21.862,-56.15694 -54.9326,-107.63953 -96.606,-150.54816 -41.6736,-42.90863 -91.9162,-77.2093 -146.8282,-100.2964 -54.9119,-23.0871 -114.44902,-34.94224 -174.01126,-34.65042 -59.56229,0.2918 -119.1017,12.73054 -174.01837,36.40124 -54.91667,23.67068 -105.16624,58.55494 -146.84914,102.0471 -41.68287,43.49218 -74.76511,95.55827 -96.64107,152.29867 -21.87597,56.7404 -32.5273,118.11071 -31.03906,179.51101 1.48824,61.4003 15.11607,122.782544 39.96841,179.5468 24.85236,56.764252 60.91088,108.86613 105.56987,152.40599 44.659,43.53988 97.88447,78.48377 155.77677,102.22601 57.8923,23.74225 120.40704,36.26447 182.94422,36.65168 62.53713,0.38721 125.04883,-11.3606 182.93503,-34.32845 57.8861,-22.96786 111.1023,-57.13739 155.7489,-99.90294 44.6465,-42.76555 80.6895,-94.093164 105.5231,-150.08323 24.8339,-55.990059 38.44,-116.598188 39.9034,-177.22446 1.4635,-60.62629 -9.2158,-121.22269 -31.1229,-177.18929 -21.907,-55.96661 -55.0234,-107.25904 -96.7435,-149.97768 -41.72,-42.71865 -92.0098,-76.82952 -146.97,-99.72702 -54.9602,-22.8975 -114.546,-34.56322 -174.15793,-34.08221 -59.6118,0.48102 -119.20162,13.10878 -174.16944,36.96829 -54.96781,23.85949 -105.26926,58.93235 -147.00478,102.6129 -41.73554,43.68055 -74.87115,95.93483 -96.80127,152.8632 -21.93011,56.92835 -32.63636,118.48641 -31.20377,180.07425 1.43259,61.587823 15.004,123.15736 39.7992,180.108693 24.7952,56.951323 60.79581,109.240037 105.39614,152.966527 44.60033,43.72646 97.76641,78.85673 155.59856,102.78511 57.83216,23.92839 120.28596,36.63649 182.76149,37.20935 62.4757,0.57284 124.9249,-10.98957 182.7479,-33.77229 57.823,-22.78271 110.9753,-56.76735 155.5572,-99.34826 44.5819,-42.58093 80.5598,-93.72416 105.3274,-149.530115 24.7675,-55.805958 38.3069,-116.230243 39.7027,-176.672945 1.3959,-60.44272 -9.3517,-120.85581 -31.3276,-176.63939 -21.976,-55.78358 -55.1621,-106.89326 -96.9528,-149.42944 -41.7905,-42.53619 -92.1517,-76.46487 -147.1838,-99.18047 -55.032,-22.71561 -114.6905,-34.19972 -174.3759,-33.5374 -59.68523,0.66234 -119.34913,13.47112 -174.39184,37.51133 -55.04267,24.04021 -105.4197,59.29349 -147.23153,103.15416 -41.81183,43.86066 -75.02447,96.29476 -97.03233,153.40262 -22.00788,57.10784 -32.79257,118.8451 -31.43917,180.61179 1.35341,61.766692 14.84493,123.5147802 39.55952,180.644332 24.71459,57.129558 60.63387,109.596178 105.15217,153.500238 44.5183,43.90404 97.60163,79.21154 155.35033,103.31684 57.74872,24.10528 120.11845,36.98999 182.50915,37.73906 62.3907,0.74909 124.7543,-10.63742 182.491,-33.24458 57.7367,-22.60717 110.802,-56.41659 155.2963,-98.82265 44.4943,-42.40607 80.3836,-93.37481 105.0621,-149.006624 24.6785,-55.63181 38.1281,-115.882297 39.4336,-176.151585 1.3053,-60.269291 -9.5335,-120.509311 -31.6013,-176.120211 -22.0678,-55.61087 -55.3466,-106.54823 -97.2304,-148.91245 -41.8838,-42.36422 -92.3389,-76.12134 -147.4655,-98.66575 -55.1267,-22.5444 -114.8807,-33.85769 -174.6619,-33.02492 -59.7812,0.83277 -119.54183,13.8116 -174.68193,38.02147 -55.13997,24.20988 -105.61503,59.63243 -147.52556,103.66197 -41.91054,44.02955 -75.22257,96.63213 -97.33049,153.90807 -22.10792,57.27592 -32.99335,119.18085 -31.74134,181.114815 1.252,61.933964 14.64144,123.848924 39.25329,181.144925 24.61186,57.29601 60.42773,109.92868 104.84197,153.99835 44.41423,44.06969 97.39281,79.5424 155.03613,103.81247 57.64343,24.27009 119.90693,37.31915 182.19103,38.23216 62.284,0.91304 124.5402,-10.30997 182.1689,-32.75406 57.6287,-22.44409 110.5854,-56.09087 154.9703,-98.33472 44.385,-42.24388 80.1643,-93.05084 104.7321,-148.52133 24.568,-55.470483 37.9062,-115.5600965 39.0996,-175.668945 1.1936,-60.108855 -9.7576,-120.188905 -31.9388,-175.640255 -22.181,-55.45136 -55.5735,-106.22963 -97.5719,-148.43523 -41.9983,-42.20562 -92.5683,-75.80456 -147.8107,-98.19128 -55.2425,-22.38669 -115.1127,-33.54275 -175.011,-32.55323 -59.8983,0.98953 -119.7765,14.12465 -175.03483,38.49036 -55.2583,24.3657 -105.85217,59.94359 -147.88219,104.12799 -42.03002,44.18442 -75.46217,96.94138 -97.69083,154.37123 -22.22865,57.42984 -33.23542,119.488185 -32.10538,181.575079 1.13005,62.086902 14.39691,124.154302 38.88559,181.602261 24.48866,57.44796 60.18076,110.23209 104.47059,154.45271 44.28983,44.22064 97.14342,79.84381 154.66125,104.26384 57.5176,24.42005 119.655,37.61856 181.8122,38.68053 62.1571,1.06196 124.2861,-10.01261 181.7869,-32.30877 57.5006,-22.29615 110.3286,-55.79552 154.5844,-97.89249 44.2559,-42.09697 79.9054,-92.75757 104.343,-148.08221 24.4377,-55.32462 37.6449,-115.268903 38.7068,-175.2329509 1.062,-59.9640481 -10.0213,-119.8998191 -32.335,-175.2074291 -22.3138,-55.30761 -55.8395,-105.94266 -97.9716,-148.00559 -42.1322,-42.06292 -92.8367,-75.51975 -148.214,-97.76485 -55.3774,-22.24511 -115.3831,-33.2601 -175.4176,-32.13005 -60.0343,1.13004 -120.0492,14.40514 -175.4447,38.91026 -55.39543,24.50512 -106.12713,60.22189 -148.29545,104.54461 -42.16835,44.32272 -75.73937,97.21744 -98.10743,154.78448 -22.36807,57.56705 -33.51482,119.762047 -32.52529,181.98503 0.98952,62.222976 14.11533,124.4259 38.4624,182.0088 24.34708,57.58291 59.89702,110.50142 104.04421,154.85587 44.14713,44.35445 96.85756,80.11085 154.23156,104.66356 57.3739,24.5527 119.367,37.8833 181.3794,39.07678 62.0124,1.19347 123.996,-9.75017 181.3508,-31.91598 57.3548,-22.16583 110.0365,-55.53544 154.1453,-97.50324 44.109,-41.9678 79.6111,-92.49982 103.9009,-147.69645 24.2897,-55.19665 37.3485,-115.01353 38.2614,-174.850778 0.9131,-59.837253 -10.3197,-119.646817 -32.7833,-174.828832 -22.4638,-55.182 -56.14,-105.69207 -98.423,-147.63059 -42.2832,-41.93854 -93.1391,-75.27157 -148.6685,-97.39348 -55.5292,-22.12192 -115.6874,-33.01436 -175.8747,-31.76234 -60.1872,1.252 -120.3556,14.64844 -175.9049,39.27428 -55.5494,24.62587 -106.43553,60.46273 -148.75883,104.90497 -42.32314,44.44221 -76.04951,97.45579 -98.5734,155.1411 -22.52389,57.685292 -33.82693,119.997909 -32.99416,182.337879 0.83276,62.339971 13.80133,124.659271 37.99072,182.357901 24.18938,57.69864 59.58114,110.73226 103.56974,155.20117 43.9885,44.46891 96.53983,80.33916 153.75433,105.00506 57.2143,24.66588 119.0475,38.10904 180.8994,39.41444 61.852,1.30537 123.6747,-9.527 180.8682,-31.58218 57.1935,-22.05521 109.7134,-55.31485 153.6601,-97.17332 43.9468,-41.85847 79.2861,-92.28181 103.4128,-147.37043 24.1266,-55.08863 37.0219,-114.79813 37.771,-174.52868 0.7492,-59.730536 -10.648,-119.4340499 -33.2765,-174.510667 -22.6285,-55.076613 -56.4699,-105.481943 -98.9187,-147.316403 -42.4486,-41.83446 -93.4706,-75.06407 -149.1664,-97.08326 -55.6958,-22.01918 -116.0209,-32.80953 -176.3754,-31.45614 -60.3546,1.35342 -120.6905,14.85058 -176.408,39.5765 -55.7174,24.72592 -106.772,60.66217 -149.26412,105.20311 -42.4921,44.54092 -76.38769,97.652538 -99.08125,155.43519 -22.69356,57.782642 -34.16664,120.191928 -33.50433,182.6279 0.66234,62.43596 13.46008,124.85054 37.47827,182.64382 24.01817,57.79325 59.23841,110.9208 103.05491,155.48296 43.81662,44.56216 96.19562,80.52495 153.23742,105.28271 57.0416,24.75777 118.7018,38.29209 180.3803,39.68794 61.6785,1.39587 123.3274,-9.34672 180.3468,-31.31283 57.0193,-21.96611 109.3648,-55.13737 153.1366,-96.90816 43.7719,-41.77079 78.9362,-92.10713 102.8872,-147.10948 23.951,-55.00234 36.6705,-114.62628 37.2432,-174.27195 0.573,-59.64566 -11.0007,-119.265013 -33.8061,-174.2581728 -22.8054,-54.9931502 -56.8241,-105.3157272 -99.4504,-147.0681572 -42.6263,-41.75242 -93.8263,-74.90073 -149.7002,-96.83929 -55.874,-21.93858 -116.3776,-32.64904 -176.9111,-31.21645 -60.5333,1.43258 -121.0485,15.00821 -176.9454,39.81188 -55.897,24.80364 -107.1314,60.81693 -149.8036,105.43416 -42.67212,44.617233 -76.74822,97.804432 -99.62248,155.661936 -22.87431,57.857503 -34.52843,120.340914 -34.04741,182.850294 0.48102,62.50937 13.09717,124.99663 36.93344,182.86185 23.83623,57.86521 58.87433,111.06398 102.50835,155.69663 43.6342,44.63264 95.8305,80.6652 152.6892,105.49198 56.8586,24.82678 118.3355,38.4294 179.8304,39.89282 61.4949,1.46342 122.9601,-9.21235 179.7953,-31.11238 56.8353,-21.90003 108.9963,-55.00594 152.5835,-96.71212 43.5872,-41.70619 78.5665,-91.97868 102.3325,-146.91789 23.7659,-54.93922 36.3,-114.50077 36.6871,-174.08479 0.3873,-59.58404 -11.3724,-119.14249 -34.3639,-174.075501 -22.9915,-54.933012 -57.1965,-105.196185 -100.0095,-146.889961 -42.8128,-41.693768 -94.1995,-74.784168 -150.2606,-96.665578 -56.0612,-21.88142 -116.7521,-32.53547 -177.4731,-31.04722 -60.7208,1.48824 -121.4237,15.11878 -177.5087,39.97659 -56.0849,24.8578 -107.5073,60.92448 -150.3679,105.594352 -42.86072,44.669876 -77.12532,97.908965 -100.18842,155.8176 -23.06311,57.908628 -34.90623,120.442428 -34.61443,183.001408 0.29181,62.55899 12.71854,125.09513 36.36523,183.00842 23.6466,57.91333 58.4949,111.15942 101.93912,155.83866 43.4441,44.67923 95.4502,80.75761 152.1185,105.62944 56.6684,24.87183 117.9546,38.51873 179.2588,40.02568 61.3043,1.50695 122.5784,-9.12605 179.2227,-30.98409 56.6442,-21.85804 108.6141,-54.92271 152.0098,-96.58843 43.3958,-41.66571 78.1837,-91.8985 101.7579,-146.7988 23.5743,-54.90028 35.9165,-114.42367 36.1117,-173.97031 0.1952,-59.54663 -11.7567,-119.06847 -34.9404,-173.96562 C 1775.0775,88.454215 1740.6801,38.226118 1697.6745,-3.4333409 1654.669,-45.0928 1603.0895,-78.14965 1546.8356,-99.998305 c -56.2538,-21.848645 -117.1378,-32.470705 -178.0518,-30.951245 -60.9141,1.51946 -121.8101,15.18045 -178.0883,40.067924 -56.2784,24.887469 -107.8943,60.983053 -150.9486,105.681043 -43.05411,44.697997 -77.51241,97.964423 -100.76931,155.899623 -23.25694,57.93521 -35.29394,120.4948 -35.19613,183.07879 0.0978,62.58401 12.33042,125.14438 35.78293,183.08113 23.4525,57.93677 58.1063,111.20557 101.35621,155.90669 43.2497,44.70114 95.0613,80.80064 151.5351,105.69281 56.4739,24.89217 117.5655,38.55865 178.6751,40.08438 61.1094,1.52573 122.1889,-9.08928 178.6382,-30.93009 56.4494,-21.84082 108.2242,-54.88904 151.4251,-96.53912 43.2008,-41.65005 77.7937,-91.86796 101.1728,-146.75415 23.3791,-54.88619 35.5261,-114.39627 35.5261,-173.93037 z"
       id="path10453" />
  </g>
  <g
     inkscape:groupmode="layer"
     id="layer2"
     inkscape:label="unsafe"
     style="display:none;opacity:0.25899999">
    <path
       inkscape:connector-curvature="0"
       style="color:#000000;clip-rule:nonzero;display:inline;overflow:visible;visibility:visible;opacity:1;isolation:auto;mix-blend-mode:normal;color-interpolation:sRGB;color-interpolation-filters:linearRGB;solid-color:#000000;solid-opacity:1;fill:#000000;fill-opacity:1;fill-rule:nonzero;stroke:none;stroke-width:2;stroke-linecap:square;stroke-linejoin:bevel;stroke-miterlimit:4;stroke-dasharray:none;stroke-dashoffset:0;stroke-opacity:1;marker:none;marker-start:none;marker-mid:none;marker-end:none;paint-order:normal;color-rendering:auto;image-rendering:auto;shape-rendering:auto;text-rendering:auto;enable-background:accumulate"
       d="m 0,0 0,198.5 1600,0 L 1600,0 0,0 Z m 0,619.5 0,280.5 1600,0 0,-280.5 -1600,0 z"
       id="rect7208" />
    <rect
       style="color:#000000;clip-rule:nonzero;display:inline;overflow:visible;visibility:visible;opacity:1;isolation:auto;mix-blend-mode:normal;color-interpolation:sRGB;color-interpolation-filters:linearRGB;solid-color:#000000;solid-opacity:1;fill:#000000;fill-opacity:1;fill-rule:nonzero;stroke:#ffffff;stroke-width:2;stroke-linecap:square;stroke-linejoin:bevel;stroke-miterlimit:4;stroke-dasharray:none;stroke-dashoffset:0;stroke-opacity:1;marker:none;marker-start:none;marker-mid:none;marker-end:none;paint-order:normal;color-rendering:auto;image-rendering:auto;shape-rendering:auto;text-rendering:auto;enable-background:accumulate"
       id="rect7185"
       width="330"
       height="330"
       x="47.022602"
       y="431.30301"
       rx="20"
       ry="20" />
    <rect
       style="color:#000000;clip-rule:nonzero;display:inline;overflow:visible;visibility:visible;opacity:1;isolation:auto;mix-blend-mode:normal;color-interpolation:sRGB;color-interpolation-filters:linearRGB;solid-color:#000000;solid-opacity:1;fill:#000000;fill-opacity:1;fill-rule:nonzero;stroke:#ffffff;stroke-width:2;stroke-linecap:square;stroke-linejoin:bevel;stroke-miterlimit:4;stroke-dasharray:none;stroke-dashoffset:0;stroke-opacity:1;marker:none;marker-start:none;marker-mid:none;marker-end:none;paint-order:normal;color-rendering:auto;image-rendering:auto;shape-rendering:auto;text-rendering:auto;enable-background:accumulate"
       id="rect7185-3"
       width="330"
       height="330"
       x="157.0226"
       y="511.30301"
       rx="20"
       ry="20" />
  </g>
</svg>
